<?xml version="1.0" encoding="UTF-8" standalone="no"?>
<!-- Created with Inkscape (http://www.inkscape.org/) -->

<svg
   width="106.76941mm"
   height="68.062195mm"
   viewBox="0 0 106.76941 68.062195"
   version="1.1"
   id="svg1647"
   inkscape:version="1.1.2 (0a00cf5339, 2022-02-04)"
   sodipodi:docname="estimator.svg"
   xmlns:inkscape="http://www.inkscape.org/namespaces/inkscape"
   xmlns:sodipodi="http://sodipodi.sourceforge.net/DTD/sodipodi-0.dtd"
   xmlns:xlink="http://www.w3.org/1999/xlink"
   xmlns="http://www.w3.org/2000/svg"
   xmlns:svg="http://www.w3.org/2000/svg">
  <sodipodi:namedview
     id="namedview1649"
     pagecolor="#ffffff"
     bordercolor="#666666"
     borderopacity="1.0"
     inkscape:pageshadow="2"
     inkscape:pageopacity="0.0"
     inkscape:pagecheckerboard="0"
     inkscape:document-units="mm"
     showgrid="false"
     inkscape:zoom="1.1653671"
     inkscape:cx="22.310566"
     inkscape:cy="99.968497"
     inkscape:window-width="2490"
     inkscape:window-height="1376"
     inkscape:window-x="0"
     inkscape:window-y="0"
     inkscape:window-maximized="1"
     inkscape:current-layer="g13742"
     inkscape:snap-center="true" />
  <defs
     id="defs1644">
    <marker
       style="overflow:visible"
       id="Arrow2Send"
       refX="0"
       refY="0"
       orient="auto"
       inkscape:stockid="Arrow2Send"
       inkscape:isstock="true">
      <path
         transform="matrix(-0.3,0,0,-0.3,0.69,0)"
         d="M 8.7185878,4.0337352 -2.2072895,0.01601326 8.7185884,-4.0017078 c -1.7454984,2.3720609 -1.7354408,5.6174519 -6e-7,8.035443 z"
         style="fill:context-stroke;fill-rule:evenodd;stroke:context-stroke;stroke-width:0.625;stroke-linejoin:round"
         id="path11669" />
    </marker>
    <marker
       style="overflow:visible"
       id="Arrow1Mend"
       refX="0"
       refY="0"
       orient="auto"
       inkscape:stockid="Arrow1Mend"
       inkscape:isstock="true">
      <path
         transform="matrix(-0.4,0,0,-0.4,-4,0)"
         style="fill:context-stroke;fill-rule:evenodd;stroke:context-stroke;stroke-width:1pt"
         d="M 0,0 5,-5 -12.5,0 5,5 Z"
         id="path11645" />
    </marker>
    <radialGradient
       inkscape:collect="always"
       xlink:href="#linearGradient4168"
       id="radialGradient4170-4-9-8-1-9"
       cx="-194.17694"
       cy="1419.484"
       fx="-194.17694"
       fy="1419.484"
       r="28.016338"
       gradientUnits="userSpaceOnUse"
       gradientTransform="matrix(0.28222223,0,0,0.28222223,260.31551,-457.52381)" />
    <linearGradient
       inkscape:collect="always"
       id="linearGradient4168">
      <stop
         style="stop-color:#ffffff;stop-opacity:1"
         offset="0"
         id="stop4164" />
      <stop
         style="stop-color:#4d4d4d;stop-opacity:1"
         offset="1"
         id="stop4166" />
    </linearGradient>
    <radialGradient
       inkscape:collect="always"
       xlink:href="#linearGradient4168"
       id="radialGradient4170-4-9-8-1-9-3"
       cx="-194.17694"
       cy="1419.484"
       fx="-194.17694"
       fy="1419.484"
       r="28.016338"
       gradientUnits="userSpaceOnUse"
       gradientTransform="matrix(0.28222223,0,0,0.28222223,232.63418,-451.7941)" />
    <radialGradient
       inkscape:collect="always"
       xlink:href="#linearGradient4168"
       id="radialGradient4170-4"
       cx="-194.17694"
       cy="1419.484"
       fx="-194.17694"
       fy="1419.484"
       r="28.016338"
       gradientUnits="userSpaceOnUse"
       gradientTransform="matrix(0.28222223,0,0,0.28222223,225.84235,-422.73272)" />
    <radialGradient
       inkscape:collect="always"
       xlink:href="#linearGradient4168"
       id="radialGradient4170-4-9"
       cx="-194.17694"
       cy="1419.484"
       fx="-194.17694"
       fy="1419.484"
       r="28.016338"
       gradientUnits="userSpaceOnUse"
       gradientTransform="matrix(0.28222223,0,0,0.28222223,243.24295,-402.56314)" />
    <radialGradient
       inkscape:collect="always"
       xlink:href="#linearGradient4168"
       id="radialGradient4170-4-9-8"
       cx="-194.17694"
       cy="1419.484"
       fx="-194.17694"
       fy="1419.484"
       r="28.016338"
       gradientUnits="userSpaceOnUse"
       gradientTransform="matrix(0.28222223,0,0,0.28222223,268.52396,-412.19824)" />
    <radialGradient
       inkscape:collect="always"
       xlink:href="#linearGradient4168"
       id="radialGradient4170-4-9-8-1"
       cx="-194.17694"
       cy="1419.484"
       fx="-194.17694"
       fy="1419.484"
       r="28.016338"
       gradientUnits="userSpaceOnUse"
       gradientTransform="matrix(0.28222223,0,0,0.28222223,276.95635,-438.21473)" />
    <g
       id="g3801">
      <symbol
         overflow="visible"
         id="symbol9152">
        <path
           style="stroke:none"
           d=""
           id="path6183" />
      </symbol>
      <symbol
         overflow="visible"
         id="symbol6195">
        <path
           style="stroke:none"
           d="m 0.296875,0 c 0.21875,0 0.4375,0.015625 0.625,-0.015625 0.46875,-0.65625 0.8125,-1.40625 1.265625,-2.046875 l 0.25,-0.015625 H 5.34375 L 5.6875,0 h 0.75 L 5.21875,-7.015625 c -0.25,0 -0.515625,0 -0.75,0.03125 L 4.375,-6.84375 Z M 4.65625,-6.28125 c 0.15625,1.25 0.390625,2.4375 0.59375,3.671875 H 2.5 l 0.109375,-0.21875 z m 0,0"
           id="path5079" />
      </symbol>
      <symbol
         overflow="visible"
         id="symbol4930">
        <path
           style="stroke:none"
           d="m 1.765625,-6.921875 c 0.453125,0.8125 0.9375,1.59375 1.40625,2.390625 0.171875,0.296875 0.359375,0.5625 0.5,0.875 L 3.609375,-3.5625 0.15625,0 c 0.265625,0 0.546875,0.015625 0.796875,-0.015625 l 0.125,-0.125 2.875,-3.03125 1.28125,2.296875 c 0.171875,0.28125 0.28125,0.609375 0.5,0.859375 C 5.984375,0.015625 6.28125,0 6.5625,0 6.4375,-0.265625 6.265625,-0.515625 6.125,-0.765625 5.546875,-1.71875 5,-2.703125 4.421875,-3.640625 V -3.65625 l 3.1875,-3.265625 c -0.265625,0 -0.546875,0 -0.796875,0.015625 L 6.703125,-6.8125 4.171875,-4.171875 4.03125,-4.453125 C 3.546875,-5.25 3.109375,-6.109375 2.609375,-6.890625 c -0.25,-0.03125 -0.5625,-0.03125 -0.84375,-0.03125 z m 0,0"
           id="path1674" />
      </symbol>
      <symbol
         overflow="visible"
         id="symbol1361">
        <path
           style="stroke:none"
           d=""
           id="path5060" />
      </symbol>
      <symbol
         overflow="visible"
         id="symbol2232">
        <path
           style="stroke:none"
           d="M 3.484375,2.21875 C 3.40625,2.125 3.296875,2.046875 3.203125,1.96875 3.125,1.890625 3.0625,1.8125 2.984375,1.734375 2,0.640625 1.46875,-1.109375 1.5625,-2.984375 1.59375,-4 1.796875,-5.03125 2.265625,-5.953125 2.5,-6.359375 2.875,-6.9375 3.203125,-7.234375 c 0.09375,-0.078125 0.203125,-0.15625 0.28125,-0.25 H 3.15625 c -0.0625,0 -0.125,0 -0.171875,0.015625 -0.125,0.0625 -0.421875,0.359375 -0.46875,0.40625 C 1.5625,-6.109375 1,-4.671875 0.921875,-2.984375 0.875,-1.78125 1.0625,-0.546875 1.609375,0.53125 1.84375,1 2.15625,1.453125 2.546875,1.828125 c 0.09375,0.09375 0.3125,0.3125 0.4375,0.375 C 3.03125,2.21875 3.09375,2.21875 3.15625,2.21875 Z m 0,0"
           id="path5614" />
      </symbol>
      <symbol
         overflow="visible"
         id="symbol6548">
        <path
           style="stroke:none"
           d="M 0.578125,-7.484375 C 0.65625,-7.390625 0.75,-7.3125 0.84375,-7.234375 0.921875,-7.15625 1,-7.078125 1.0625,-7 1.9375,-6 2.4375,-4.640625 2.5,-2.984375 2.546875,-1.75 2.359375,-0.453125 1.796875,0.65625 1.609375,1.046875 1.359375,1.421875 1.0625,1.734375 1,1.8125 0.921875,1.890625 0.84375,1.96875 0.75,2.046875 0.65625,2.125 0.578125,2.21875 H 0.90625 c 0.046875,0 0.125,0 0.171875,-0.015625 C 1.203125,2.140625 1.5,1.84375 1.53125,1.796875 2.5,0.84375 3.0625,-0.59375 3.140625,-2.28125 c 0.046875,-1.203125 -0.15625,-2.4375 -0.6875,-3.515625 -0.234375,-0.46875 -0.5625,-0.90625 -0.9375,-1.296875 -0.09375,-0.09375 -0.3125,-0.3125 -0.4375,-0.375 -0.046875,-0.015625 -0.125,-0.015625 -0.171875,-0.015625 z m 0,0"
           id="path769" />
      </symbol>
      <symbol
         overflow="visible"
         id="symbol718">
        <path
           style="stroke:none"
           d=""
           id="path3043" />
      </symbol>
      <symbol
         overflow="visible"
         id="symbol6382">
        <path
           style="stroke:none"
           d="m 0.78125,-4.21875 v 0.390625 c 0.34375,0 0.6875,-0.0625 1,-0.203125 v 3.640625 H 0.8125 V 0 H 3.25 V -0.390625 H 2.28125 V -4.6875 c -0.03125,0 -0.09375,0 -0.125,0.015625 C 2.109375,-4.65625 2.0625,-4.59375 2.015625,-4.5625 1.734375,-4.328125 1.21875,-4.21875 0.78125,-4.21875 Z m 0,0"
           id="path8934" />
      </symbol>
    </g>
    <g
       id="g9694">
      <symbol
         overflow="visible"
         id="symbol4830">
        <path
           style="stroke:none"
           d=""
           id="path5069" />
      </symbol>
      <symbol
         overflow="visible"
         id="symbol7959">
        <path
           style="stroke:none"
           d="m 0.296875,0 c 0.21875,0 0.4375,0.015625 0.625,-0.015625 0.46875,-0.65625 0.8125,-1.40625 1.265625,-2.046875 l 0.25,-0.015625 H 5.34375 L 5.6875,0 h 0.75 L 5.21875,-7.015625 c -0.25,0 -0.515625,0 -0.75,0.03125 L 4.375,-6.84375 Z M 4.65625,-6.28125 c 0.15625,1.25 0.390625,2.4375 0.59375,3.671875 H 2.5 l 0.109375,-0.21875 z m 0,0"
           id="path6741" />
      </symbol>
      <symbol
         overflow="visible"
         id="symbol4602">
        <path
           style="stroke:none"
           d="m 1.765625,-6.921875 c 0.453125,0.8125 0.9375,1.59375 1.40625,2.390625 0.171875,0.296875 0.359375,0.5625 0.5,0.875 L 3.609375,-3.5625 0.15625,0 c 0.265625,0 0.546875,0.015625 0.796875,-0.015625 l 0.125,-0.125 2.875,-3.03125 1.28125,2.296875 c 0.171875,0.28125 0.28125,0.609375 0.5,0.859375 C 5.984375,0.015625 6.28125,0 6.5625,0 6.4375,-0.265625 6.265625,-0.515625 6.125,-0.765625 5.546875,-1.71875 5,-2.703125 4.421875,-3.640625 V -3.65625 l 3.1875,-3.265625 c -0.265625,0 -0.546875,0 -0.796875,0.015625 L 6.703125,-6.8125 4.171875,-4.171875 4.03125,-4.453125 C 3.546875,-5.25 3.109375,-6.109375 2.609375,-6.890625 c -0.25,-0.03125 -0.5625,-0.03125 -0.84375,-0.03125 z m 0,0"
           id="path6855" />
      </symbol>
      <symbol
         overflow="visible"
         id="symbol5380">
        <path
           style="stroke:none"
           d=""
           id="path163" />
      </symbol>
      <symbol
         overflow="visible"
         id="symbol5719">
        <path
           style="stroke:none"
           d="M 3.484375,2.21875 C 3.40625,2.125 3.296875,2.046875 3.203125,1.96875 3.125,1.890625 3.0625,1.8125 2.984375,1.734375 2,0.640625 1.46875,-1.109375 1.5625,-2.984375 1.59375,-4 1.796875,-5.03125 2.265625,-5.953125 2.5,-6.359375 2.875,-6.9375 3.203125,-7.234375 c 0.09375,-0.078125 0.203125,-0.15625 0.28125,-0.25 H 3.15625 c -0.0625,0 -0.125,0 -0.171875,0.015625 -0.125,0.0625 -0.421875,0.359375 -0.46875,0.40625 C 1.5625,-6.109375 1,-4.671875 0.921875,-2.984375 0.875,-1.78125 1.0625,-0.546875 1.609375,0.53125 1.84375,1 2.15625,1.453125 2.546875,1.828125 c 0.09375,0.09375 0.3125,0.3125 0.4375,0.375 C 3.03125,2.21875 3.09375,2.21875 3.15625,2.21875 Z m 0,0"
           id="path5152" />
      </symbol>
      <symbol
         overflow="visible"
         id="symbol2287">
        <path
           style="stroke:none"
           d="M 0.578125,-7.484375 C 0.65625,-7.390625 0.75,-7.3125 0.84375,-7.234375 0.921875,-7.15625 1,-7.078125 1.0625,-7 1.9375,-6 2.4375,-4.640625 2.5,-2.984375 2.546875,-1.75 2.359375,-0.453125 1.796875,0.65625 1.609375,1.046875 1.359375,1.421875 1.0625,1.734375 1,1.8125 0.921875,1.890625 0.84375,1.96875 0.75,2.046875 0.65625,2.125 0.578125,2.21875 H 0.90625 c 0.046875,0 0.125,0 0.171875,-0.015625 C 1.203125,2.140625 1.5,1.84375 1.53125,1.796875 2.5,0.84375 3.0625,-0.59375 3.140625,-2.28125 c 0.046875,-1.203125 -0.15625,-2.4375 -0.6875,-3.515625 -0.234375,-0.46875 -0.5625,-0.90625 -0.9375,-1.296875 -0.09375,-0.09375 -0.3125,-0.3125 -0.4375,-0.375 -0.046875,-0.015625 -0.125,-0.015625 -0.171875,-0.015625 z m 0,0"
           id="path9761" />
      </symbol>
      <symbol
         overflow="visible"
         id="symbol5913">
        <path
           style="stroke:none"
           d=""
           id="path3181" />
      </symbol>
      <symbol
         overflow="visible"
         id="symbol7794">
        <path
           style="stroke:none"
           d="m 0.625,-3.203125 c 0.109375,-0.40625 0.28125,-0.84375 0.71875,-1 0.15625,-0.0625 0.328125,-0.078125 0.515625,-0.0625 0.359375,0.03125 0.71875,0.171875 0.9375,0.484375 0.140625,0.203125 0.1875,0.453125 0.15625,0.703125 C 2.875,-2.40625 2.28125,-1.984375 1.796875,-1.609375 1.40625,-1.3125 0.59375,-0.59375 0.59375,-0.59375 l -0.140625,0.109375 c -0.0625,0.078125 -0.0625,0.0625 -0.0625,0.21875 V 0 h 3.09375 V -0.4375 H 0.84375 c 0.265625,-0.234375 1.0625,-0.90625 1.296875,-1.078125 0.4375,-0.328125 0.921875,-0.640625 1.203125,-1.125 0.296875,-0.5625 0.109375,-1.28125 -0.375,-1.671875 -0.53125,-0.453125 -1.5,-0.515625 -2.09375,-0.078125 -0.21875,0.15625 -0.375,0.40625 -0.484375,0.65625 -0.015625,0.0625 -0.0625,0.125 -0.0625,0.1875 0.015625,0.03125 0.0625,0.0625 0.078125,0.109375 0.0625,0.078125 0.140625,0.171875 0.21875,0.234375 z m 0,0"
           id="path3131" />
      </symbol>
    </g>
    <g
       id="g5394">
      <symbol
         overflow="visible"
         id="symbol2856">
        <path
           style="stroke:none"
           d=""
           id="path3356" />
      </symbol>
      <symbol
         overflow="visible"
         id="symbol1740">
        <path
           style="stroke:none"
           d="m 0.296875,0 c 0.21875,0 0.4375,0.015625 0.625,-0.015625 0.46875,-0.65625 0.8125,-1.40625 1.265625,-2.046875 l 0.25,-0.015625 H 5.34375 L 5.6875,0 h 0.75 L 5.21875,-7.015625 c -0.25,0 -0.515625,0 -0.75,0.03125 L 4.375,-6.84375 Z M 4.65625,-6.28125 c 0.15625,1.25 0.390625,2.4375 0.59375,3.671875 H 2.5 l 0.109375,-0.21875 z m 0,0"
           id="path6050" />
      </symbol>
      <symbol
         overflow="visible"
         id="symbol6585">
        <path
           style="stroke:none"
           d="m 1.765625,-6.921875 c 0.453125,0.8125 0.9375,1.59375 1.40625,2.390625 0.171875,0.296875 0.359375,0.5625 0.5,0.875 L 3.609375,-3.5625 0.15625,0 c 0.265625,0 0.546875,0.015625 0.796875,-0.015625 l 0.125,-0.125 2.875,-3.03125 1.28125,2.296875 c 0.171875,0.28125 0.28125,0.609375 0.5,0.859375 C 5.984375,0.015625 6.28125,0 6.5625,0 6.4375,-0.265625 6.265625,-0.515625 6.125,-0.765625 5.546875,-1.71875 5,-2.703125 4.421875,-3.640625 V -3.65625 l 3.1875,-3.265625 c -0.265625,0 -0.546875,0 -0.796875,0.015625 L 6.703125,-6.8125 4.171875,-4.171875 4.03125,-4.453125 C 3.546875,-5.25 3.109375,-6.109375 2.609375,-6.890625 c -0.25,-0.03125 -0.5625,-0.03125 -0.84375,-0.03125 z m 0,0"
           id="path7921" />
      </symbol>
      <symbol
         overflow="visible"
         id="symbol3675">
        <path
           style="stroke:none"
           d=""
           id="path7872" />
      </symbol>
      <symbol
         overflow="visible"
         id="symbol8193">
        <path
           style="stroke:none"
           d="M 3.484375,2.21875 C 3.40625,2.125 3.296875,2.046875 3.203125,1.96875 3.125,1.890625 3.0625,1.8125 2.984375,1.734375 2,0.640625 1.46875,-1.109375 1.5625,-2.984375 1.59375,-4 1.796875,-5.03125 2.265625,-5.953125 2.5,-6.359375 2.875,-6.9375 3.203125,-7.234375 c 0.09375,-0.078125 0.203125,-0.15625 0.28125,-0.25 H 3.15625 c -0.0625,0 -0.125,0 -0.171875,0.015625 -0.125,0.0625 -0.421875,0.359375 -0.46875,0.40625 C 1.5625,-6.109375 1,-4.671875 0.921875,-2.984375 0.875,-1.78125 1.0625,-0.546875 1.609375,0.53125 1.84375,1 2.15625,1.453125 2.546875,1.828125 c 0.09375,0.09375 0.3125,0.3125 0.4375,0.375 C 3.03125,2.21875 3.09375,2.21875 3.15625,2.21875 Z m 0,0"
           id="path2812" />
      </symbol>
      <symbol
         overflow="visible"
         id="symbol428">
        <path
           style="stroke:none"
           d="M 0.578125,-7.484375 C 0.65625,-7.390625 0.75,-7.3125 0.84375,-7.234375 0.921875,-7.15625 1,-7.078125 1.0625,-7 1.9375,-6 2.4375,-4.640625 2.5,-2.984375 2.546875,-1.75 2.359375,-0.453125 1.796875,0.65625 1.609375,1.046875 1.359375,1.421875 1.0625,1.734375 1,1.8125 0.921875,1.890625 0.84375,1.96875 0.75,2.046875 0.65625,2.125 0.578125,2.21875 H 0.90625 c 0.046875,0 0.125,0 0.171875,-0.015625 C 1.203125,2.140625 1.5,1.84375 1.53125,1.796875 2.5,0.84375 3.0625,-0.59375 3.140625,-2.28125 c 0.046875,-1.203125 -0.15625,-2.4375 -0.6875,-3.515625 -0.234375,-0.46875 -0.5625,-0.90625 -0.9375,-1.296875 -0.09375,-0.09375 -0.3125,-0.3125 -0.4375,-0.375 -0.046875,-0.015625 -0.125,-0.015625 -0.171875,-0.015625 z m 0,0"
           id="path5474" />
      </symbol>
      <symbol
         overflow="visible"
         id="symbol4306">
        <path
           style="stroke:none"
           d=""
           id="path7610" />
      </symbol>
      <symbol
         overflow="visible"
         id="symbol3380">
        <path
           style="stroke:none"
           d="M 1.78125,-4.84375 0.75,0 h 0.359375 c 0.03125,0 0.109375,0.015625 0.125,-0.015625 0.015625,-0.03125 0.0625,-0.3125 0.09375,-0.390625 0.046875,-0.296875 0.625,-3 0.625,-3 0.0625,-0.34375 0.15625,-0.65625 0.21875,-1 L 3.75,0 C 4,-0.015625 4.28125,0.03125 4.484375,-0.015625 l 0.03125,-0.109375 1,-4.71875 H 5.03125 L 4.09375,-0.421875 2.625,-4.515625 C 2.59375,-4.625 2.5625,-4.734375 2.5,-4.828125 L 2.4375,-4.84375 Z m 0,0"
           id="path5840" />
      </symbol>
    </g>
    <g
       id="g4392">
      <symbol
         overflow="visible"
         id="symbol6210">
        <path
           style="stroke:none"
           d=""
           id="path5896" />
      </symbol>
      <symbol
         overflow="visible"
         id="symbol8790">
        <path
           style="stroke:none"
           d="m 0.296875,0 c 0.21875,0 0.4375,0.015625 0.625,-0.015625 0.46875,-0.65625 0.8125,-1.40625 1.265625,-2.046875 l 0.25,-0.015625 H 5.34375 L 5.6875,0 h 0.75 L 5.21875,-7.015625 c -0.25,0 -0.515625,0 -0.75,0.03125 L 4.375,-6.84375 Z M 4.65625,-6.28125 c 0.15625,1.25 0.390625,2.4375 0.59375,3.671875 H 2.5 l 0.109375,-0.21875 z m 0,0"
           id="path1458" />
      </symbol>
      <symbol
         overflow="visible"
         id="symbol2076">
        <path
           style="stroke:none"
           d="m 1.765625,-6.921875 c 0.453125,0.8125 0.9375,1.59375 1.40625,2.390625 0.171875,0.296875 0.359375,0.5625 0.5,0.875 L 3.609375,-3.5625 0.15625,0 c 0.265625,0 0.546875,0.015625 0.796875,-0.015625 l 0.125,-0.125 2.875,-3.03125 1.28125,2.296875 c 0.171875,0.28125 0.28125,0.609375 0.5,0.859375 C 5.984375,0.015625 6.28125,0 6.5625,0 6.4375,-0.265625 6.265625,-0.515625 6.125,-0.765625 5.546875,-1.71875 5,-2.703125 4.421875,-3.640625 V -3.65625 l 3.1875,-3.265625 c -0.265625,0 -0.546875,0 -0.796875,0.015625 L 6.703125,-6.8125 4.171875,-4.171875 4.03125,-4.453125 C 3.546875,-5.25 3.109375,-6.109375 2.609375,-6.890625 c -0.25,-0.03125 -0.5625,-0.03125 -0.84375,-0.03125 z m 0,0"
           id="path9339" />
      </symbol>
      <symbol
         overflow="visible"
         id="symbol3730">
        <path
           style="stroke:none"
           d=""
           id="path106" />
      </symbol>
      <symbol
         overflow="visible"
         id="symbol357">
        <path
           style="stroke:none"
           d="M 3.484375,2.21875 C 3.40625,2.125 3.296875,2.046875 3.203125,1.96875 3.125,1.890625 3.0625,1.8125 2.984375,1.734375 2,0.640625 1.46875,-1.109375 1.5625,-2.984375 1.59375,-4 1.796875,-5.03125 2.265625,-5.953125 2.5,-6.359375 2.875,-6.9375 3.203125,-7.234375 c 0.09375,-0.078125 0.203125,-0.15625 0.28125,-0.25 H 3.15625 c -0.0625,0 -0.125,0 -0.171875,0.015625 -0.125,0.0625 -0.421875,0.359375 -0.46875,0.40625 C 1.5625,-6.109375 1,-4.671875 0.921875,-2.984375 0.875,-1.78125 1.0625,-0.546875 1.609375,0.53125 1.84375,1 2.15625,1.453125 2.546875,1.828125 c 0.09375,0.09375 0.3125,0.3125 0.4375,0.375 C 3.03125,2.21875 3.09375,2.21875 3.15625,2.21875 Z m 0,0"
           id="path1323" />
      </symbol>
      <symbol
         overflow="visible"
         id="symbol8697">
        <path
           style="stroke:none"
           d="M 0.578125,-7.484375 C 0.65625,-7.390625 0.75,-7.3125 0.84375,-7.234375 0.921875,-7.15625 1,-7.078125 1.0625,-7 1.9375,-6 2.4375,-4.640625 2.5,-2.984375 2.546875,-1.75 2.359375,-0.453125 1.796875,0.65625 1.609375,1.046875 1.359375,1.421875 1.0625,1.734375 1,1.8125 0.921875,1.890625 0.84375,1.96875 0.75,2.046875 0.65625,2.125 0.578125,2.21875 H 0.90625 c 0.046875,0 0.125,0 0.171875,-0.015625 C 1.203125,2.140625 1.5,1.84375 1.53125,1.796875 2.5,0.84375 3.0625,-0.59375 3.140625,-2.28125 c 0.046875,-1.203125 -0.15625,-2.4375 -0.6875,-3.515625 -0.234375,-0.46875 -0.5625,-0.90625 -0.9375,-1.296875 -0.09375,-0.09375 -0.3125,-0.3125 -0.4375,-0.375 -0.046875,-0.015625 -0.125,-0.015625 -0.171875,-0.015625 z m 0,0"
           id="path7239" />
      </symbol>
      <symbol
         overflow="visible"
         id="symbol9329">
        <path
           style="stroke:none"
           d=""
           id="path2899" />
      </symbol>
      <symbol
         overflow="visible"
         id="symbol1395">
        <path
           style="stroke:none"
           d="M 1.609375,-4.84375 1.5,-4.3125 0.578125,0 h 0.375 c 0.03125,0 0.109375,0.015625 0.125,-0.015625 0.015625,-0.046875 0.03125,-0.09375 0.03125,-0.140625 0.03125,-0.09375 0.984375,-4.625 1,-4.6875 z m 0,0"
           id="path8977" />
      </symbol>
    </g>
    <g
       id="g5559">
      <symbol
         overflow="visible"
         id="symbol2873">
        <path
           style="stroke:none"
           d=""
           id="path403" />
      </symbol>
      <symbol
         overflow="visible"
         id="symbol6629">
        <path
           style="stroke:none"
           d="M 1.0625,-0.78125 V 0 h 0.78125 v -0.78125 z m 0,0"
           id="path777" />
      </symbol>
    </g>
    <g
       id="g5796">
      <symbol
         overflow="visible"
         id="symbol145">
        <path
           style="stroke:none"
           d=""
           id="path1154" />
      </symbol>
      <symbol
         overflow="visible"
         id="symbol5260">
        <path
           style="stroke:none"
           d="m 0.296875,0 c 0.21875,0 0.4375,0.015625 0.625,-0.015625 0.46875,-0.65625 0.8125,-1.40625 1.265625,-2.046875 l 0.25,-0.015625 H 5.34375 L 5.6875,0 h 0.75 L 5.21875,-7.015625 c -0.25,0 -0.515625,0 -0.75,0.03125 L 4.375,-6.84375 Z M 4.65625,-6.28125 c 0.15625,1.25 0.390625,2.4375 0.59375,3.671875 H 2.5 l 0.109375,-0.21875 z m 0,0"
           id="path9700" />
      </symbol>
      <symbol
         overflow="visible"
         id="symbol4910">
        <path
           style="stroke:none"
           d="m 1.765625,-6.921875 c 0.453125,0.8125 0.9375,1.59375 1.40625,2.390625 0.171875,0.296875 0.359375,0.5625 0.5,0.875 L 3.609375,-3.5625 0.15625,0 c 0.265625,0 0.546875,0.015625 0.796875,-0.015625 l 0.125,-0.125 2.875,-3.03125 1.28125,2.296875 c 0.171875,0.28125 0.28125,0.609375 0.5,0.859375 C 5.984375,0.015625 6.28125,0 6.5625,0 6.4375,-0.265625 6.265625,-0.515625 6.125,-0.765625 5.546875,-1.71875 5,-2.703125 4.421875,-3.640625 V -3.65625 l 3.1875,-3.265625 c -0.265625,0 -0.546875,0 -0.796875,0.015625 L 6.703125,-6.8125 4.171875,-4.171875 4.03125,-4.453125 C 3.546875,-5.25 3.109375,-6.109375 2.609375,-6.890625 c -0.25,-0.03125 -0.5625,-0.03125 -0.84375,-0.03125 z m 0,0"
           id="path9445" />
      </symbol>
      <symbol
         overflow="visible"
         id="symbol6436">
        <path
           style="stroke:none"
           d=""
           id="path953" />
      </symbol>
      <symbol
         overflow="visible"
         id="symbol2411">
        <path
           style="stroke:none"
           d="M 3.484375,2.21875 C 3.40625,2.125 3.296875,2.046875 3.203125,1.96875 3.125,1.890625 3.0625,1.8125 2.984375,1.734375 2,0.640625 1.46875,-1.109375 1.5625,-2.984375 1.59375,-4 1.796875,-5.03125 2.265625,-5.953125 2.5,-6.359375 2.875,-6.9375 3.203125,-7.234375 c 0.09375,-0.078125 0.203125,-0.15625 0.28125,-0.25 H 3.15625 c -0.0625,0 -0.125,0 -0.171875,0.015625 -0.125,0.0625 -0.421875,0.359375 -0.46875,0.40625 C 1.5625,-6.109375 1,-4.671875 0.921875,-2.984375 0.875,-1.78125 1.0625,-0.546875 1.609375,0.53125 1.84375,1 2.15625,1.453125 2.546875,1.828125 c 0.09375,0.09375 0.3125,0.3125 0.4375,0.375 C 3.03125,2.21875 3.09375,2.21875 3.15625,2.21875 Z m 0,0"
           id="path3025" />
      </symbol>
      <symbol
         overflow="visible"
         id="symbol9096">
        <path
           style="stroke:none"
           d="M 0.578125,-7.484375 C 0.65625,-7.390625 0.75,-7.3125 0.84375,-7.234375 0.921875,-7.15625 1,-7.078125 1.0625,-7 1.9375,-6 2.4375,-4.640625 2.5,-2.984375 2.546875,-1.75 2.359375,-0.453125 1.796875,0.65625 1.609375,1.046875 1.359375,1.421875 1.0625,1.734375 1,1.8125 0.921875,1.890625 0.84375,1.96875 0.75,2.046875 0.65625,2.125 0.578125,2.21875 H 0.90625 c 0.046875,0 0.125,0 0.171875,-0.015625 C 1.203125,2.140625 1.5,1.84375 1.53125,1.796875 2.5,0.84375 3.0625,-0.59375 3.140625,-2.28125 c 0.046875,-1.203125 -0.15625,-2.4375 -0.6875,-3.515625 -0.234375,-0.46875 -0.5625,-0.90625 -0.9375,-1.296875 -0.09375,-0.09375 -0.3125,-0.3125 -0.4375,-0.375 -0.046875,-0.015625 -0.125,-0.015625 -0.171875,-0.015625 z m 0,0"
           id="path3154" />
      </symbol>
      <symbol
         overflow="visible"
         id="symbol6993">
        <path
           style="stroke:none"
           d=""
           id="path9181" />
      </symbol>
      <symbol
         overflow="visible"
         id="symbol164">
        <path
           style="stroke:none"
           d="M 0.6875,-3.546875 C 0.96875,-4.03125 1.515625,-4.34375 2.078125,-4.28125 2.484375,-4.265625 2.875,-4.03125 2.8125,-3.546875 2.765625,-3.15625 2.453125,-2.859375 2.078125,-2.75 1.875,-2.6875 1.515625,-2.671875 1.296875,-2.65625 v 0.390625 H 1.75 c 0.09375,0 0.1875,-0.015625 0.296875,0 0.25,0.015625 0.5,0.109375 0.6875,0.28125 C 3.046875,-1.6875 3.09375,-1.15625 2.90625,-0.78125 2.8125,-0.640625 2.703125,-0.515625 2.546875,-0.4375 2.1875,-0.21875 1.734375,-0.265625 1.34375,-0.390625 1.078125,-0.46875 0.828125,-0.609375 0.625,-0.796875 0.53125,-0.875 0.46875,-0.953125 0.390625,-1.03125 0.375,-0.953125 0.359375,-0.859375 0.34375,-0.78125 0.328125,-0.671875 0.3125,-0.640625 0.390625,-0.5625 l 0.125,0.125 c 0.203125,0.171875 0.4375,0.3125 0.6875,0.421875 0.546875,0.203125 1.1875,0.1875 1.6875,-0.125 C 3.375,-0.46875 3.734375,-1.09375 3.453125,-1.6875 3.265625,-2.09375 2.921875,-2.328125 2.46875,-2.46875 c 0.265625,-0.125 0.453125,-0.234375 0.625,-0.484375 0.140625,-0.203125 0.296875,-0.515625 0.21875,-0.84375 -0.0625,-0.34375 -0.34375,-0.609375 -0.65625,-0.75 -0.453125,-0.203125 -1,-0.171875 -1.453125,0.03125 -0.234375,0.09375 -0.4375,0.25 -0.609375,0.4375 C 0.5625,-4.0625 0.453125,-3.921875 0.453125,-3.875 c 0,0.03125 0.171875,0.265625 0.234375,0.328125 z m 0,0"
           id="path9040" />
      </symbol>
    </g>
    <g
       id="g3012">
      <symbol
         overflow="visible"
         id="symbol8224">
        <path
           style="stroke:none"
           d=""
           id="path3458" />
      </symbol>
      <symbol
         overflow="visible"
         id="symbol8542">
        <path
           style="stroke:none"
           d="m 0.296875,0 c 0.21875,0 0.4375,0.015625 0.625,-0.015625 0.46875,-0.65625 0.8125,-1.40625 1.265625,-2.046875 l 0.25,-0.015625 H 5.34375 L 5.6875,0 h 0.75 L 5.21875,-7.015625 c -0.25,0 -0.515625,0 -0.75,0.03125 L 4.375,-6.84375 Z M 4.65625,-6.28125 c 0.15625,1.25 0.390625,2.4375 0.59375,3.671875 H 2.5 l 0.109375,-0.21875 z m 0,0"
           id="path3314" />
      </symbol>
      <symbol
         overflow="visible"
         id="symbol1053">
        <path
           style="stroke:none"
           d="m 1.765625,-6.921875 c 0.453125,0.8125 0.9375,1.59375 1.40625,2.390625 0.171875,0.296875 0.359375,0.5625 0.5,0.875 L 3.609375,-3.5625 0.15625,0 c 0.265625,0 0.546875,0.015625 0.796875,-0.015625 l 0.125,-0.125 2.875,-3.03125 1.28125,2.296875 c 0.171875,0.28125 0.28125,0.609375 0.5,0.859375 C 5.984375,0.015625 6.28125,0 6.5625,0 6.4375,-0.265625 6.265625,-0.515625 6.125,-0.765625 5.546875,-1.71875 5,-2.703125 4.421875,-3.640625 V -3.65625 l 3.1875,-3.265625 c -0.265625,0 -0.546875,0 -0.796875,0.015625 L 6.703125,-6.8125 4.171875,-4.171875 4.03125,-4.453125 C 3.546875,-5.25 3.109375,-6.109375 2.609375,-6.890625 c -0.25,-0.03125 -0.5625,-0.03125 -0.84375,-0.03125 z m 0,0"
           id="path2067" />
      </symbol>
      <symbol
         overflow="visible"
         id="symbol4761">
        <path
           style="stroke:none"
           d=""
           id="path4470" />
      </symbol>
      <symbol
         overflow="visible"
         id="symbol8901">
        <path
           style="stroke:none"
           d="M 3.484375,2.21875 C 3.40625,2.125 3.296875,2.046875 3.203125,1.96875 3.125,1.890625 3.0625,1.8125 2.984375,1.734375 2,0.640625 1.46875,-1.109375 1.5625,-2.984375 1.59375,-4 1.796875,-5.03125 2.265625,-5.953125 2.5,-6.359375 2.875,-6.9375 3.203125,-7.234375 c 0.09375,-0.078125 0.203125,-0.15625 0.28125,-0.25 H 3.15625 c -0.0625,0 -0.125,0 -0.171875,0.015625 -0.125,0.0625 -0.421875,0.359375 -0.46875,0.40625 C 1.5625,-6.109375 1,-4.671875 0.921875,-2.984375 0.875,-1.78125 1.0625,-0.546875 1.609375,0.53125 1.84375,1 2.15625,1.453125 2.546875,1.828125 c 0.09375,0.09375 0.3125,0.3125 0.4375,0.375 C 3.03125,2.21875 3.09375,2.21875 3.15625,2.21875 Z m 0,0"
           id="path2827" />
      </symbol>
      <symbol
         overflow="visible"
         id="symbol6237">
        <path
           style="stroke:none"
           d="M 0.578125,-7.484375 C 0.65625,-7.390625 0.75,-7.3125 0.84375,-7.234375 0.921875,-7.15625 1,-7.078125 1.0625,-7 1.9375,-6 2.4375,-4.640625 2.5,-2.984375 2.546875,-1.75 2.359375,-0.453125 1.796875,0.65625 1.609375,1.046875 1.359375,1.421875 1.0625,1.734375 1,1.8125 0.921875,1.890625 0.84375,1.96875 0.75,2.046875 0.65625,2.125 0.578125,2.21875 H 0.90625 c 0.046875,0 0.125,0 0.171875,-0.015625 C 1.203125,2.140625 1.5,1.84375 1.53125,1.796875 2.5,0.84375 3.0625,-0.59375 3.140625,-2.28125 c 0.046875,-1.203125 -0.15625,-2.4375 -0.6875,-3.515625 -0.234375,-0.46875 -0.5625,-0.90625 -0.9375,-1.296875 -0.09375,-0.09375 -0.3125,-0.3125 -0.4375,-0.375 -0.046875,-0.015625 -0.125,-0.015625 -0.171875,-0.015625 z m 0,0"
           id="path2978" />
      </symbol>
      <symbol
         overflow="visible"
         id="symbol1167">
        <path
           style="stroke:none"
           d=""
           id="path6902" />
      </symbol>
      <symbol
         overflow="visible"
         id="symbol4676">
        <path
           style="stroke:none"
           d="M 1.78125,-4.84375 0.75,0 h 0.359375 c 0.03125,0 0.109375,0.015625 0.125,-0.015625 0.015625,-0.03125 0.0625,-0.3125 0.09375,-0.390625 0.046875,-0.296875 0.625,-3 0.625,-3 0.0625,-0.34375 0.15625,-0.65625 0.21875,-1 L 3.75,0 C 4,-0.015625 4.28125,0.03125 4.484375,-0.015625 l 0.03125,-0.109375 1,-4.71875 H 5.03125 L 4.09375,-0.421875 2.625,-4.515625 C 2.59375,-4.625 2.5625,-4.734375 2.5,-4.828125 L 2.4375,-4.84375 Z m 0,0"
           id="path3361" />
      </symbol>
      <symbol
         overflow="visible"
         id="symbol4490">
        <path
           style="stroke:none"
           d=""
           id="path7635" />
      </symbol>
      <symbol
         overflow="visible"
         id="symbol9115">
        <path
           style="stroke:none"
           d="m 0.546875,-3.015625 v 0.28125 c 0.25,0 0.5,-0.046875 0.734375,-0.140625 v 2.59375 H 0.578125 V 0 h 1.75 v -0.28125 h -0.6875 v -3.0625 c -0.03125,0 -0.078125,-0.015625 -0.09375,0 C 1.5,-3.328125 1.46875,-3.296875 1.4375,-3.265625 c -0.203125,0.171875 -0.5625,0.25 -0.890625,0.25 z m 0,0"
           id="path9023" />
      </symbol>
    </g>
    <g
       id="g5128">
      <symbol
         overflow="visible"
         id="symbol1028">
        <path
           style="stroke:none"
           d=""
           id="path1007" />
      </symbol>
      <symbol
         overflow="visible"
         id="symbol4851">
        <path
           style="stroke:none"
           d="m 0.296875,0 c 0.21875,0 0.4375,0.015625 0.625,-0.015625 0.46875,-0.65625 0.8125,-1.40625 1.265625,-2.046875 l 0.25,-0.015625 H 5.34375 L 5.6875,0 h 0.75 L 5.21875,-7.015625 c -0.25,0 -0.515625,0 -0.75,0.03125 L 4.375,-6.84375 Z M 4.65625,-6.28125 c 0.15625,1.25 0.390625,2.4375 0.59375,3.671875 H 2.5 l 0.109375,-0.21875 z m 0,0"
           id="path8912" />
      </symbol>
      <symbol
         overflow="visible"
         id="symbol9994">
        <path
           style="stroke:none"
           d="m 1.765625,-6.921875 c 0.453125,0.8125 0.9375,1.59375 1.40625,2.390625 0.171875,0.296875 0.359375,0.5625 0.5,0.875 L 3.609375,-3.5625 0.15625,0 c 0.265625,0 0.546875,0.015625 0.796875,-0.015625 l 0.125,-0.125 2.875,-3.03125 1.28125,2.296875 c 0.171875,0.28125 0.28125,0.609375 0.5,0.859375 C 5.984375,0.015625 6.28125,0 6.5625,0 6.4375,-0.265625 6.265625,-0.515625 6.125,-0.765625 5.546875,-1.71875 5,-2.703125 4.421875,-3.640625 V -3.65625 l 3.1875,-3.265625 c -0.265625,0 -0.546875,0 -0.796875,0.015625 L 6.703125,-6.8125 4.171875,-4.171875 4.03125,-4.453125 C 3.546875,-5.25 3.109375,-6.109375 2.609375,-6.890625 c -0.25,-0.03125 -0.5625,-0.03125 -0.84375,-0.03125 z m 0,0"
           id="path5146" />
      </symbol>
      <symbol
         overflow="visible"
         id="symbol2337">
        <path
           style="stroke:none"
           d=""
           id="path7417" />
      </symbol>
      <symbol
         overflow="visible"
         id="symbol7018">
        <path
           style="stroke:none"
           d="M 3.484375,2.21875 C 3.40625,2.125 3.296875,2.046875 3.203125,1.96875 3.125,1.890625 3.0625,1.8125 2.984375,1.734375 2,0.640625 1.46875,-1.109375 1.5625,-2.984375 1.59375,-4 1.796875,-5.03125 2.265625,-5.953125 2.5,-6.359375 2.875,-6.9375 3.203125,-7.234375 c 0.09375,-0.078125 0.203125,-0.15625 0.28125,-0.25 H 3.15625 c -0.0625,0 -0.125,0 -0.171875,0.015625 -0.125,0.0625 -0.421875,0.359375 -0.46875,0.40625 C 1.5625,-6.109375 1,-4.671875 0.921875,-2.984375 0.875,-1.78125 1.0625,-0.546875 1.609375,0.53125 1.84375,1 2.15625,1.453125 2.546875,1.828125 c 0.09375,0.09375 0.3125,0.3125 0.4375,0.375 C 3.03125,2.21875 3.09375,2.21875 3.15625,2.21875 Z m 0,0"
           id="path9161" />
      </symbol>
      <symbol
         overflow="visible"
         id="symbol4212">
        <path
           style="stroke:none"
           d="M 0.578125,-7.484375 C 0.65625,-7.390625 0.75,-7.3125 0.84375,-7.234375 0.921875,-7.15625 1,-7.078125 1.0625,-7 1.9375,-6 2.4375,-4.640625 2.5,-2.984375 2.546875,-1.75 2.359375,-0.453125 1.796875,0.65625 1.609375,1.046875 1.359375,1.421875 1.0625,1.734375 1,1.8125 0.921875,1.890625 0.84375,1.96875 0.75,2.046875 0.65625,2.125 0.578125,2.21875 H 0.90625 c 0.046875,0 0.125,0 0.171875,-0.015625 C 1.203125,2.140625 1.5,1.84375 1.53125,1.796875 2.5,0.84375 3.0625,-0.59375 3.140625,-2.28125 c 0.046875,-1.203125 -0.15625,-2.4375 -0.6875,-3.515625 -0.234375,-0.46875 -0.5625,-0.90625 -0.9375,-1.296875 -0.09375,-0.09375 -0.3125,-0.3125 -0.4375,-0.375 -0.046875,-0.015625 -0.125,-0.015625 -0.171875,-0.015625 z m 0,0"
           id="path9420" />
      </symbol>
      <symbol
         overflow="visible"
         id="symbol7427">
        <path
           style="stroke:none"
           d=""
           id="path4835" />
      </symbol>
      <symbol
         overflow="visible"
         id="symbol6784">
        <path
           style="stroke:none"
           d="M 1.78125,-4.84375 0.75,0 h 0.359375 c 0.03125,0 0.109375,0.015625 0.125,-0.015625 0.015625,-0.03125 0.0625,-0.3125 0.09375,-0.390625 0.046875,-0.296875 0.625,-3 0.625,-3 0.0625,-0.34375 0.15625,-0.65625 0.21875,-1 L 3.75,0 C 4,-0.015625 4.28125,0.03125 4.484375,-0.015625 l 0.03125,-0.109375 1,-4.71875 H 5.03125 L 4.09375,-0.421875 2.625,-4.515625 C 2.59375,-4.625 2.5625,-4.734375 2.5,-4.828125 L 2.4375,-4.84375 Z m 0,0"
           id="path6048" />
      </symbol>
      <symbol
         overflow="visible"
         id="symbol4743">
        <path
           style="stroke:none"
           d=""
           id="path7227" />
      </symbol>
      <symbol
         overflow="visible"
         id="symbol3960">
        <path
           style="stroke:none"
           d="m 0.734375,-2 c -0.140625,0.046875 -0.15625,0.265625 -0.015625,0.3125 0.046875,0.015625 0.09375,0.015625 0.125,0.015625 h 3.9375 c 0.09375,0 0.234375,0.015625 0.3125,-0.046875 C 5.171875,-1.8125 5.125,-1.96875 5,-2 4.921875,-2.015625 4.828125,-2 4.734375,-2 h -3.875 c -0.03125,0 -0.078125,0 -0.125,0 z m 0,0"
           id="path6196" />
      </symbol>
      <symbol
         overflow="visible"
         id="symbol9197">
        <path
           style="stroke:none"
           d=""
           id="path4106" />
      </symbol>
      <symbol
         overflow="visible"
         id="symbol5290">
        <path
           style="stroke:none"
           d="m 0.78125,-4.21875 v 0.390625 c 0.34375,0 0.6875,-0.0625 1,-0.203125 v 3.640625 H 0.8125 V 0 H 3.25 V -0.390625 H 2.28125 V -4.6875 c -0.03125,0 -0.09375,0 -0.125,0.015625 C 2.109375,-4.65625 2.0625,-4.59375 2.015625,-4.5625 1.734375,-4.328125 1.21875,-4.21875 0.78125,-4.21875 Z m 0,0"
           id="path2078" />
      </symbol>
    </g>
    <g
       id="g8386">
      <symbol
         overflow="visible"
         id="symbol899">
        <path
           style="stroke:none"
           d=""
           id="path5329" />
      </symbol>
      <symbol
         overflow="visible"
         id="symbol3792">
        <path
           style="stroke:none"
           d="M 0.921875,-2.875 C 0.75,-2.578125 0.9375,-2.1875 1.28125,-2.109375 c 0.1875,0.03125 0.3125,-0.03125 0.421875,-0.109375 0.25,-0.171875 0.28125,-0.546875 0.078125,-0.765625 C 1.703125,-3.078125 1.609375,-3.125 1.5,-3.15625 1.21875,-3.1875 1,-3.078125 0.921875,-2.875 Z m 0,0"
           id="path2556" />
      </symbol>
    </g>
    <g
       id="g5580">
      <symbol
         overflow="visible"
         id="symbol7517">
        <path
           style="stroke:none"
           d=""
           id="path8450" />
      </symbol>
      <symbol
         overflow="visible"
         id="symbol1934">
        <path
           style="stroke:none"
           d="m 1.765625,-6.921875 c 0.453125,0.8125 0.9375,1.59375 1.40625,2.390625 0.171875,0.296875 0.359375,0.5625 0.5,0.875 L 3.609375,-3.5625 0.15625,0 c 0.265625,0 0.546875,0.015625 0.796875,-0.015625 l 0.125,-0.125 2.875,-3.03125 1.28125,2.296875 c 0.171875,0.28125 0.28125,0.609375 0.5,0.859375 C 5.984375,0.015625 6.28125,0 6.5625,0 6.4375,-0.265625 6.265625,-0.515625 6.125,-0.765625 5.546875,-1.71875 5,-2.703125 4.421875,-3.640625 V -3.65625 l 3.1875,-3.265625 c -0.265625,0 -0.546875,0 -0.796875,0.015625 L 6.703125,-6.8125 4.171875,-4.171875 4.03125,-4.453125 C 3.546875,-5.25 3.109375,-6.109375 2.609375,-6.890625 c -0.25,-0.03125 -0.5625,-0.03125 -0.84375,-0.03125 z m 0,0"
           id="path2460" />
      </symbol>
    </g>
    <g
       id="g1436">
      <symbol
         overflow="visible"
         id="symbol2663">
        <path
           style="stroke:none"
           d=""
           id="path3570" />
      </symbol>
      <symbol
         overflow="visible"
         id="symbol3068">
        <path
           style="stroke:none"
           d="m 0.734375,-6.296875 v 0.53125 H 4.5 v -0.53125 z m 0,0"
           id="path757" />
      </symbol>
      <symbol
         overflow="visible"
         id="symbol1405">
        <path
           style="stroke:none"
           d=""
           id="path3284" />
      </symbol>
      <symbol
         overflow="visible"
         id="symbol2719">
        <path
           style="stroke:none"
           d="m 1.765625,-6.921875 c 0.453125,0.8125 0.9375,1.59375 1.40625,2.390625 0.171875,0.296875 0.359375,0.5625 0.5,0.875 L 3.609375,-3.5625 0.15625,0 c 0.265625,0 0.546875,0.015625 0.796875,-0.015625 l 0.125,-0.125 2.875,-3.03125 1.28125,2.296875 c 0.171875,0.28125 0.28125,0.609375 0.5,0.859375 C 5.984375,0.015625 6.28125,0 6.5625,0 6.4375,-0.265625 6.265625,-0.515625 6.125,-0.765625 5.546875,-1.71875 5,-2.703125 4.421875,-3.640625 V -3.65625 l 3.1875,-3.265625 c -0.265625,0 -0.546875,0 -0.796875,0.015625 L 6.703125,-6.8125 4.171875,-4.171875 4.03125,-4.453125 C 3.546875,-5.25 3.109375,-6.109375 2.609375,-6.890625 c -0.25,-0.03125 -0.5625,-0.03125 -0.84375,-0.03125 z m 0,0"
           id="path9148" />
      </symbol>
    </g>
    <g
       id="g679">
      <symbol
         overflow="visible"
         id="symbol3712">
        <path
           style="stroke:none"
           d=""
           id="path9346" />
      </symbol>
      <symbol
         overflow="visible"
         id="symbol2793">
        <path
           style="stroke:none"
           d="m 1.765625,-6.921875 c 0.453125,0.8125 0.9375,1.59375 1.40625,2.390625 0.171875,0.296875 0.359375,0.5625 0.5,0.875 L 3.609375,-3.5625 0.15625,0 c 0.265625,0 0.546875,0.015625 0.796875,-0.015625 l 0.125,-0.125 2.875,-3.03125 1.28125,2.296875 c 0.171875,0.28125 0.28125,0.609375 0.5,0.859375 C 5.984375,0.015625 6.28125,0 6.5625,0 6.4375,-0.265625 6.265625,-0.515625 6.125,-0.765625 5.546875,-1.71875 5,-2.703125 4.421875,-3.640625 V -3.65625 l 3.1875,-3.265625 c -0.265625,0 -0.546875,0 -0.796875,0.015625 L 6.703125,-6.8125 4.171875,-4.171875 4.03125,-4.453125 C 3.546875,-5.25 3.109375,-6.109375 2.609375,-6.890625 c -0.25,-0.03125 -0.5625,-0.03125 -0.84375,-0.03125 z m 0,0"
           id="path1315" />
      </symbol>
      <symbol
         overflow="visible"
         id="symbol7328">
        <path
           style="stroke:none"
           d=""
           id="path516" />
      </symbol>
      <symbol
         overflow="visible"
         id="symbol1307">
        <path
           style="stroke:none"
           d="m 0.78125,-4.21875 v 0.390625 c 0.34375,0 0.6875,-0.0625 1,-0.203125 v 3.640625 H 0.8125 V 0 H 3.25 V -0.390625 H 2.28125 V -4.6875 c -0.03125,0 -0.09375,0 -0.125,0.015625 C 2.109375,-4.65625 2.0625,-4.59375 2.015625,-4.5625 1.734375,-4.328125 1.21875,-4.21875 0.78125,-4.21875 Z m 0,0"
           id="path3712" />
      </symbol>
    </g>
    <marker
       style="overflow:visible"
       id="Arrow2Send-9"
       refX="0"
       refY="0"
       orient="auto"
       inkscape:stockid="Arrow2Send"
       inkscape:isstock="true">
      <path
         transform="matrix(-0.3,0,0,-0.3,0.69,0)"
         d="M 8.7185878,4.0337352 -2.2072895,0.01601326 8.7185884,-4.0017078 c -1.7454984,2.3720609 -1.7354408,5.6174519 -6e-7,8.035443 z"
         style="fill:context-stroke;fill-rule:evenodd;stroke:context-stroke;stroke-width:0.625;stroke-linejoin:round"
         id="path11669-7" />
    </marker>
    <g
       id="g7278">
      <symbol
         overflow="visible"
         id="symbol2998">
        <path
           style="stroke:none"
           d=""
           id="path1978" />
      </symbol>
      <symbol
         overflow="visible"
         id="symbol7463">
        <path
           style="stroke:none"
           d="M 0.484375,-6.65625 C 0.53125,-6.5625 1.21875,-5.1875 1.21875,-5.1875 1.9375,-3.734375 3.59375,-0.453125 3.6875,-0.234375 3.734375,-0.15625 3.890625,0.1875 3.9375,0.25 c 0.078125,0.09375 0.265625,0.109375 0.359375,0.046875 0.0625,-0.03125 0.09375,-0.09375 0.125,-0.15625 L 7.0625,-5.15625 7.65625,-6.34375 C 7.6875,-6.421875 7.859375,-6.6875 7.8125,-6.765625 7.796875,-6.8125 7.75,-6.8125 7.703125,-6.8125 h -7.0625 c -0.109375,0 -0.21875,0.015625 -0.15625,0.15625 z m 6.6875,0.5625 -2.71875,5.484375 H 4.4375 L 1.71875,-6.09375 Z m 0,0"
           id="path2081" />
      </symbol>
      <symbol
         overflow="visible"
         id="symbol3869">
        <path
           style="stroke:none"
           d=""
           id="path441" />
      </symbol>
      <symbol
         overflow="visible"
         id="symbol5881">
        <path
           style="stroke:none"
           d="M 1.828125,-6.921875 C 1.8125,-6.78125 1.203125,-3.953125 1.03125,-3.078125 0.953125,-2.71875 0.84375,-2.34375 0.8125,-1.96875 0.75,-1.140625 1.125,-0.5 1.671875,-0.15625 2.71875,0.53125 4.125,0.0625 4.9375,-0.765625 5.265625,-1.09375 5.515625,-1.484375 5.6875,-1.90625 5.828125,-2.296875 5.875,-2.71875 5.96875,-3.125 L 6.609375,-6.15625 6.703125,-6.625 c 0.03125,-0.09375 0.0625,-0.1875 0.0625,-0.296875 H 6.125 C 6.109375,-6.78125 5.9375,-5.953125 5.875,-5.6875 l -0.515625,2.390625 c -0.15625,0.75 -0.25,1.546875 -0.75,2.15625 C 4.171875,-0.609375 3.453125,-0.296875 2.75,-0.375 2.265625,-0.421875 1.8125,-0.640625 1.609375,-1.109375 1.40625,-1.5625 1.5,-2.078125 1.609375,-2.546875 1.640625,-2.71875 1.671875,-2.875 1.71875,-3.03125 L 2.25,-5.546875 c 0.046875,-0.203125 0.265625,-1.21875 0.28125,-1.375 z m 0,0"
           id="path469" />
      </symbol>
      <symbol
         overflow="visible"
         id="symbol4542">
        <path
           style="stroke:none"
           d="m 1.765625,-6.921875 c 0.453125,0.8125 0.9375,1.59375 1.40625,2.390625 0.171875,0.296875 0.359375,0.5625 0.5,0.875 L 3.609375,-3.5625 0.15625,0 c 0.265625,0 0.546875,0.015625 0.796875,-0.015625 l 0.125,-0.125 2.875,-3.03125 1.28125,2.296875 c 0.171875,0.28125 0.28125,0.609375 0.5,0.859375 C 5.984375,0.015625 6.28125,0 6.5625,0 6.4375,-0.265625 6.265625,-0.515625 6.125,-0.765625 5.546875,-1.71875 5,-2.703125 4.421875,-3.640625 V -3.65625 l 3.1875,-3.265625 c -0.265625,0 -0.546875,0 -0.796875,0.015625 L 6.703125,-6.8125 4.171875,-4.171875 4.03125,-4.453125 C 3.546875,-5.25 3.109375,-6.109375 2.609375,-6.890625 c -0.25,-0.03125 -0.5625,-0.03125 -0.84375,-0.03125 z m 0,0"
           id="path4941" />
      </symbol>
      <symbol
         overflow="visible"
         id="symbol7318">
        <path
           style="stroke:none"
           d=""
           id="path6485" />
      </symbol>
      <symbol
         overflow="visible"
         id="symbol7802">
        <path
           style="stroke:none"
           d="M 3.484375,2.21875 C 3.40625,2.125 3.296875,2.046875 3.203125,1.96875 3.125,1.890625 3.0625,1.8125 2.984375,1.734375 2,0.640625 1.46875,-1.109375 1.5625,-2.984375 1.59375,-4 1.796875,-5.03125 2.265625,-5.953125 2.5,-6.359375 2.875,-6.9375 3.203125,-7.234375 c 0.09375,-0.078125 0.203125,-0.15625 0.28125,-0.25 H 3.15625 c -0.0625,0 -0.125,0 -0.171875,0.015625 -0.125,0.0625 -0.421875,0.359375 -0.46875,0.40625 C 1.5625,-6.109375 1,-4.671875 0.921875,-2.984375 0.875,-1.78125 1.0625,-0.546875 1.609375,0.53125 1.84375,1 2.15625,1.453125 2.546875,1.828125 c 0.09375,0.09375 0.3125,0.3125 0.4375,0.375 C 3.03125,2.21875 3.09375,2.21875 3.15625,2.21875 Z m 0,0"
           id="path1982" />
      </symbol>
      <symbol
         overflow="visible"
         id="symbol5343">
        <path
           style="stroke:none"
           d="M 0.578125,-7.484375 C 0.65625,-7.390625 0.75,-7.3125 0.84375,-7.234375 0.921875,-7.15625 1,-7.078125 1.0625,-7 1.9375,-6 2.4375,-4.640625 2.5,-2.984375 2.546875,-1.75 2.359375,-0.453125 1.796875,0.65625 1.609375,1.046875 1.359375,1.421875 1.0625,1.734375 1,1.8125 0.921875,1.890625 0.84375,1.96875 0.75,2.046875 0.65625,2.125 0.578125,2.21875 H 0.90625 c 0.046875,0 0.125,0 0.171875,-0.015625 C 1.203125,2.140625 1.5,1.84375 1.53125,1.796875 2.5,0.84375 3.0625,-0.59375 3.140625,-2.28125 c 0.046875,-1.203125 -0.15625,-2.4375 -0.6875,-3.515625 -0.234375,-0.46875 -0.5625,-0.90625 -0.9375,-1.296875 -0.09375,-0.09375 -0.3125,-0.3125 -0.4375,-0.375 -0.046875,-0.015625 -0.125,-0.015625 -0.171875,-0.015625 z m 0,0"
           id="path498" />
      </symbol>
      <symbol
         overflow="visible"
         id="symbol5057">
        <path
           style="stroke:none"
           d=""
           id="path6828" />
      </symbol>
      <symbol
         overflow="visible"
         id="symbol8108">
        <path
           style="stroke:none"
           d="m 0.78125,-4.21875 v 0.390625 c 0.34375,0 0.6875,-0.0625 1,-0.203125 v 3.640625 H 0.8125 V 0 H 3.25 V -0.390625 H 2.28125 V -4.6875 c -0.03125,0 -0.09375,0 -0.125,0.015625 C 2.109375,-4.65625 2.0625,-4.59375 2.015625,-4.5625 1.734375,-4.328125 1.21875,-4.21875 0.78125,-4.21875 Z m 0,0"
           id="path5668" />
      </symbol>
    </g>
    <g
       id="g2333">
      <symbol
         overflow="visible"
         id="symbol8775">
        <path
           style="stroke:none"
           d=""
           id="path7607" />
      </symbol>
      <symbol
         overflow="visible"
         id="symbol8175">
        <path
           style="stroke:none"
           d="M 0.484375,-6.65625 C 0.53125,-6.5625 1.21875,-5.1875 1.21875,-5.1875 1.9375,-3.734375 3.59375,-0.453125 3.6875,-0.234375 3.734375,-0.15625 3.890625,0.1875 3.9375,0.25 c 0.078125,0.09375 0.265625,0.109375 0.359375,0.046875 0.0625,-0.03125 0.09375,-0.09375 0.125,-0.15625 L 7.0625,-5.15625 7.65625,-6.34375 C 7.6875,-6.421875 7.859375,-6.6875 7.8125,-6.765625 7.796875,-6.8125 7.75,-6.8125 7.703125,-6.8125 h -7.0625 c -0.109375,0 -0.21875,0.015625 -0.15625,0.15625 z m 6.6875,0.5625 -2.71875,5.484375 H 4.4375 L 1.71875,-6.09375 Z m 0,0"
           id="path1752" />
      </symbol>
      <symbol
         overflow="visible"
         id="symbol3443">
        <path
           style="stroke:none"
           d=""
           id="path2227" />
      </symbol>
      <symbol
         overflow="visible"
         id="symbol130">
        <path
           style="stroke:none"
           d="M 1.828125,-6.921875 C 1.8125,-6.78125 1.203125,-3.953125 1.03125,-3.078125 0.953125,-2.71875 0.84375,-2.34375 0.8125,-1.96875 0.75,-1.140625 1.125,-0.5 1.671875,-0.15625 2.71875,0.53125 4.125,0.0625 4.9375,-0.765625 5.265625,-1.09375 5.515625,-1.484375 5.6875,-1.90625 5.828125,-2.296875 5.875,-2.71875 5.96875,-3.125 L 6.609375,-6.15625 6.703125,-6.625 c 0.03125,-0.09375 0.0625,-0.1875 0.0625,-0.296875 H 6.125 C 6.109375,-6.78125 5.9375,-5.953125 5.875,-5.6875 l -0.515625,2.390625 c -0.15625,0.75 -0.25,1.546875 -0.75,2.15625 C 4.171875,-0.609375 3.453125,-0.296875 2.75,-0.375 2.265625,-0.421875 1.8125,-0.640625 1.609375,-1.109375 1.40625,-1.5625 1.5,-2.078125 1.609375,-2.546875 1.640625,-2.71875 1.671875,-2.875 1.71875,-3.03125 L 2.25,-5.546875 c 0.046875,-0.203125 0.265625,-1.21875 0.28125,-1.375 z m 0,0"
           id="path5929" />
      </symbol>
      <symbol
         overflow="visible"
         id="symbol9041">
        <path
           style="stroke:none"
           d="m 1.765625,-6.921875 c 0.453125,0.8125 0.9375,1.59375 1.40625,2.390625 0.171875,0.296875 0.359375,0.5625 0.5,0.875 L 3.609375,-3.5625 0.15625,0 c 0.265625,0 0.546875,0.015625 0.796875,-0.015625 l 0.125,-0.125 2.875,-3.03125 1.28125,2.296875 c 0.171875,0.28125 0.28125,0.609375 0.5,0.859375 C 5.984375,0.015625 6.28125,0 6.5625,0 6.4375,-0.265625 6.265625,-0.515625 6.125,-0.765625 5.546875,-1.71875 5,-2.703125 4.421875,-3.640625 V -3.65625 l 3.1875,-3.265625 c -0.265625,0 -0.546875,0 -0.796875,0.015625 L 6.703125,-6.8125 4.171875,-4.171875 4.03125,-4.453125 C 3.546875,-5.25 3.109375,-6.109375 2.609375,-6.890625 c -0.25,-0.03125 -0.5625,-0.03125 -0.84375,-0.03125 z m 0,0"
           id="path8770" />
      </symbol>
      <symbol
         overflow="visible"
         id="symbol8352">
        <path
           style="stroke:none"
           d=""
           id="path5915" />
      </symbol>
      <symbol
         overflow="visible"
         id="symbol1456">
        <path
           style="stroke:none"
           d="M 3.484375,2.21875 C 3.40625,2.125 3.296875,2.046875 3.203125,1.96875 3.125,1.890625 3.0625,1.8125 2.984375,1.734375 2,0.640625 1.46875,-1.109375 1.5625,-2.984375 1.59375,-4 1.796875,-5.03125 2.265625,-5.953125 2.5,-6.359375 2.875,-6.9375 3.203125,-7.234375 c 0.09375,-0.078125 0.203125,-0.15625 0.28125,-0.25 H 3.15625 c -0.0625,0 -0.125,0 -0.171875,0.015625 -0.125,0.0625 -0.421875,0.359375 -0.46875,0.40625 C 1.5625,-6.109375 1,-4.671875 0.921875,-2.984375 0.875,-1.78125 1.0625,-0.546875 1.609375,0.53125 1.84375,1 2.15625,1.453125 2.546875,1.828125 c 0.09375,0.09375 0.3125,0.3125 0.4375,0.375 C 3.03125,2.21875 3.09375,2.21875 3.15625,2.21875 Z m 0,0"
           id="path9304" />
      </symbol>
      <symbol
         overflow="visible"
         id="symbol9475">
        <path
           style="stroke:none"
           d="M 0.578125,-7.484375 C 0.65625,-7.390625 0.75,-7.3125 0.84375,-7.234375 0.921875,-7.15625 1,-7.078125 1.0625,-7 1.9375,-6 2.4375,-4.640625 2.5,-2.984375 2.546875,-1.75 2.359375,-0.453125 1.796875,0.65625 1.609375,1.046875 1.359375,1.421875 1.0625,1.734375 1,1.8125 0.921875,1.890625 0.84375,1.96875 0.75,2.046875 0.65625,2.125 0.578125,2.21875 H 0.90625 c 0.046875,0 0.125,0 0.171875,-0.015625 C 1.203125,2.140625 1.5,1.84375 1.53125,1.796875 2.5,0.84375 3.0625,-0.59375 3.140625,-2.28125 c 0.046875,-1.203125 -0.15625,-2.4375 -0.6875,-3.515625 -0.234375,-0.46875 -0.5625,-0.90625 -0.9375,-1.296875 -0.09375,-0.09375 -0.3125,-0.3125 -0.4375,-0.375 -0.046875,-0.015625 -0.125,-0.015625 -0.171875,-0.015625 z m 0,0"
           id="path1370" />
      </symbol>
      <symbol
         overflow="visible"
         id="symbol1099">
        <path
           style="stroke:none"
           d=""
           id="path6621" />
      </symbol>
      <symbol
         overflow="visible"
         id="symbol4974">
        <path
           style="stroke:none"
           d="M 1.609375,-4.84375 1.5,-4.3125 0.578125,0 h 0.375 c 0.03125,0 0.109375,0.015625 0.125,-0.015625 0.015625,-0.046875 0.03125,-0.09375 0.03125,-0.140625 0.03125,-0.09375 0.984375,-4.625 1,-4.6875 z m 0,0"
           id="path5914" />
      </symbol>
    </g>
    <g
       id="g2208">
      <symbol
         overflow="visible"
         id="symbol1420">
        <path
           style="stroke:none"
           d=""
           id="path7374" />
      </symbol>
      <symbol
         overflow="visible"
         id="symbol9879">
        <path
           style="stroke:none"
           d="m 1.765625,-6.921875 c 0.453125,0.8125 0.9375,1.59375 1.40625,2.390625 0.171875,0.296875 0.359375,0.5625 0.5,0.875 L 3.609375,-3.5625 0.15625,0 c 0.265625,0 0.546875,0.015625 0.796875,-0.015625 l 0.125,-0.125 2.875,-3.03125 1.28125,2.296875 c 0.171875,0.28125 0.28125,0.609375 0.5,0.859375 C 5.984375,0.015625 6.28125,0 6.5625,0 6.4375,-0.265625 6.265625,-0.515625 6.125,-0.765625 5.546875,-1.71875 5,-2.703125 4.421875,-3.640625 V -3.65625 l 3.1875,-3.265625 c -0.265625,0 -0.546875,0 -0.796875,0.015625 L 6.703125,-6.8125 4.171875,-4.171875 4.03125,-4.453125 C 3.546875,-5.25 3.109375,-6.109375 2.609375,-6.890625 c -0.25,-0.03125 -0.5625,-0.03125 -0.84375,-0.03125 z m 0,0"
           id="path4763" />
      </symbol>
      <symbol
         overflow="visible"
         id="symbol8073">
        <path
           style="stroke:none"
           d=""
           id="path7707" />
      </symbol>
      <symbol
         overflow="visible"
         id="symbol9505">
        <path
           style="stroke:none"
           d="M 1.609375,-4.84375 1.5,-4.3125 0.578125,0 h 0.375 c 0.03125,0 0.109375,0.015625 0.125,-0.015625 0.015625,-0.046875 0.03125,-0.09375 0.03125,-0.140625 0.03125,-0.09375 0.984375,-4.625 1,-4.6875 z m 0,0"
           id="path4052" />
      </symbol>
    </g>
  </defs>
  <g
     inkscape:label="Layer 1"
     inkscape:groupmode="layer"
     id="layer1"
     transform="translate(-81.844989,-91.715557)">
    <g
       id="g8650"
       transform="rotate(-11.184462,135.50907,113.28596)">
      <path
         id="rect6785-94"
         style="fill:#ffaaaa;fill-rule:evenodd;stroke-width:2.00449;stroke-linejoin:round;stop-color:#000000"
         d="m 140.6268,107.10393 1.905,-0.66852 -0.085,5.57419 -1.90501,0.66851 z"
         sodipodi:nodetypes="ccccc" />
      <path
         id="rect6785-2-1"
         style="fill:#800000;fill-rule:evenodd;stroke-width:2.00449;stroke-linejoin:round;stop-color:#000000"
         d="m 142.5318,106.43541 -1.905,0.66852 3.54961,4.29872 1.90501,-0.66852 z"
         sodipodi:nodetypes="ccccc" />
      <path
         id="rect6785-9-54-9"
         style="fill:#ffaaaa;fill-rule:evenodd;stroke-width:2.00449;stroke-linejoin:round;stop-color:#000000"
         d="m 136.99218,108.37939 1.905,-0.66851 -0.085,5.57418 -1.90501,0.66852 z"
         sodipodi:nodetypes="ccccc" />
      <path
         id="rect6785-2-1-5"
         style="fill:#800000;fill-rule:evenodd;stroke-width:2.00449;stroke-linejoin:round;stop-color:#000000"
         d="m 138.89718,107.71087 -1.905,0.66852 3.54961,4.29872 1.90501,-0.66852 z"
         sodipodi:nodetypes="ccccc" />
      <path
         id="rect6785-9-54"
         style="fill:#ffaaaa;fill-rule:evenodd;stroke-width:2.00449;stroke-linejoin:round;stop-color:#000000"
         d="m 144.26138,105.82846 1.905,-0.66851 -0.085,5.57418 -1.90501,0.66852 z"
         sodipodi:nodetypes="ccccc" />
      <path
         id="rect6785-2-7-1"
         style="fill:#800000;fill-rule:evenodd;stroke-width:2.00449;stroke-linejoin:round;stop-color:#000000"
         d="m 146.16638,105.15995 -1.905,0.66851 3.54961,4.29872 1.90501,-0.66851 z"
         sodipodi:nodetypes="ccccc" />
      <path
         id="rect6785-9-5-5"
         style="fill:#ffaaaa;fill-rule:evenodd;stroke-width:2.00449;stroke-linejoin:round;stop-color:#000000"
         d="m 147.89596,104.553 1.905,-0.66852 -0.085,5.57419 -1.90501,0.66851 z"
         sodipodi:nodetypes="ccccc" />
      <path
         id="rect6785-2-7-6-5"
         style="fill:#800000;fill-rule:evenodd;stroke-width:2.00449;stroke-linejoin:round;stop-color:#000000"
         d="m 149.80096,103.88448 -1.905,0.66852 3.54961,4.29872 1.90501,-0.66852 z"
         sodipodi:nodetypes="ccccc" />
      <path
         id="rect6785-9-5-5-8"
         style="fill:#ffaaaa;fill-rule:evenodd;stroke-width:2.00449;stroke-linejoin:round;stop-color:#000000"
         d="m 151.53058,103.27753 1.905,-0.66852 -0.085,5.57419 -1.90501,0.66851 z"
         sodipodi:nodetypes="ccccc" />
      <path
         id="rect6785-2-7-6-5-7"
         style="fill:#800000;fill-rule:evenodd;stroke-width:2.00449;stroke-linejoin:round;stop-color:#000000"
         d="m 153.43558,102.60901 -1.905,0.66852 3.54961,4.29872 1.90501,-0.66852 z"
         sodipodi:nodetypes="ccccc" />
    </g>
    <g
       id="g8694">
      <path
         id="rect6785-94-9-2-6-7-4"
         style="fill:#ffaaaa;fill-rule:evenodd;stroke-width:2.00449;stroke-linejoin:round;stop-color:#000000"
         d="m 126.90418,130.42946 0.32385,-1.99276 4.8549,2.74018 -0.32384,1.99276 z"
         sodipodi:nodetypes="ccccc" />
      <path
         id="rect6785-2-1-8-7-3-2-7"
         style="fill:#800000;fill-rule:evenodd;stroke-width:2.00449;stroke-linejoin:round;stop-color:#000000"
         d="m 127.22803,128.4367 -0.32385,1.99276 5.47277,-1.06183 0.32385,-1.99276 z"
         sodipodi:nodetypes="ccccc" />
      <path
         id="rect6785-2-1-8-7-3-2-7-5"
         style="fill:#800000;fill-rule:evenodd;stroke-width:2.00449;stroke-linejoin:round;stop-color:#000000"
         d="m 126.61016,132.2387 -0.32384,1.99276 5.47277,-1.06182 0.32384,-1.99276 z"
         sodipodi:nodetypes="ccccc" />
      <path
         id="rect6785-9-54-3-0-3-5-6"
         style="fill:#ffaaaa;fill-rule:evenodd;stroke-width:2.00449;stroke-linejoin:round;stop-color:#000000"
         d="m 127.52205,126.62745 0.32384,-1.99276 4.85491,2.74018 -0.32385,1.99276 z"
         sodipodi:nodetypes="ccccc" />
      <path
         id="rect6785-2-7-1-8-3-4-8-5"
         style="fill:#800000;fill-rule:evenodd;stroke-width:2.00449;stroke-linejoin:round;stop-color:#000000"
         d="m 127.84589,124.63469 -0.32384,1.99276 5.47277,-1.06182 0.32384,-1.99276 z"
         sodipodi:nodetypes="ccccc" />
      <path
         id="rect6785-9-5-5-5-4-4-9-7"
         style="fill:#ffaaaa;fill-rule:evenodd;stroke-width:2.00449;stroke-linejoin:round;stop-color:#000000"
         d="m 128.13991,122.82544 0.32384,-1.99276 4.85491,2.74019 -0.32384,1.99276 z"
         sodipodi:nodetypes="ccccc" />
      <path
         id="rect6785-2-7-6-5-2-6-3-0-1"
         style="fill:#800000;fill-rule:evenodd;stroke-width:2.00449;stroke-linejoin:round;stop-color:#000000"
         d="m 128.46375,120.83268 -0.32384,1.99276 5.47277,-1.06182 0.32384,-1.99276 z"
         sodipodi:nodetypes="ccccc" />
      <path
         id="rect6785-9-5-5-5-4-4-9-7-0"
         style="fill:#ffaaaa;fill-rule:evenodd;stroke-width:2.00449;stroke-linejoin:round;stop-color:#000000"
         d="m 128.75777,119.02343 0.32384,-1.99276 4.85491,2.74019 -0.32384,1.99276 z"
         sodipodi:nodetypes="ccccc" />
    </g>
    <g
       id="g8912"
       transform="rotate(6.2277822,143.6237,135.42352)"
       inkscape:transform-center-x="-9.3474344"
       inkscape:transform-center-y="4.4042103">
      <path
         id="rect6785-2-7-6-5-2-6-3-0-8-2"
         style="fill:#800000;fill-rule:evenodd;stroke-width:2.00449;stroke-linejoin:round;stop-color:#000000"
         d="m 148.50995,153.11919 1.91121,0.65059 -0.13733,-5.57314 -1.91121,-0.65059 z"
         sodipodi:nodetypes="ccccc" />
      <g
         id="g8792">
        <path
           id="rect6785-94-9-2-6-7-6"
           style="fill:#ffaaaa;fill-rule:evenodd;stroke-width:2.00449;stroke-linejoin:round;stop-color:#000000"
           d="m 146.77477,152.52851 -1.91121,-0.65059 3.50907,-4.33187 1.9112,0.65059 z"
           sodipodi:nodetypes="ccccc" />
        <path
           id="rect6785-2-7-6-5-2-6-3-0-8"
           style="fill:#800000;fill-rule:evenodd;stroke-width:2.00449;stroke-linejoin:round;stop-color:#000000"
           d="m 144.86356,151.87792 1.91121,0.65059 -0.13733,-5.57314 -1.91121,-0.65059 z"
           sodipodi:nodetypes="ccccc" />
        <path
           id="rect6785-94-9-2-6-7"
           style="fill:#ffaaaa;fill-rule:evenodd;stroke-width:2.00449;stroke-linejoin:round;stop-color:#000000"
           d="m 143.12838,151.28724 -1.91121,-0.65059 3.50907,-4.33187 1.9112,0.65059 z"
           sodipodi:nodetypes="ccccc" />
        <path
           id="rect6785-2-1-8-7-3-2"
           style="fill:#800000;fill-rule:evenodd;stroke-width:2.00449;stroke-linejoin:round;stop-color:#000000"
           d="m 141.21717,150.63665 1.91121,0.65059 -0.13734,-5.57314 -1.9112,-0.65059 z"
           sodipodi:nodetypes="ccccc" />
        <path
           id="rect6785-9-54-3-0-3-5"
           style="fill:#ffaaaa;fill-rule:evenodd;stroke-width:2.00449;stroke-linejoin:round;stop-color:#000000"
           d="m 139.48196,150.04598 -1.9112,-0.65059 3.50908,-4.33188 1.9112,0.65059 z"
           sodipodi:nodetypes="ccccc" />
        <path
           id="rect6785-2-7-1-8-3-4-8"
           style="fill:#800000;fill-rule:evenodd;stroke-width:2.00449;stroke-linejoin:round;stop-color:#000000"
           d="m 137.57076,149.39539 1.9112,0.65059 -0.13733,-5.57314 -1.9112,-0.65059 z"
           sodipodi:nodetypes="ccccc" />
        <path
           id="rect6785-9-5-5-5-4-4-9"
           style="fill:#ffaaaa;fill-rule:evenodd;stroke-width:2.00449;stroke-linejoin:round;stop-color:#000000"
           d="m 135.83557,148.8047 -1.9112,-0.65058 3.50906,-4.33187 1.9112,0.65059 z"
           sodipodi:nodetypes="ccccc" />
      </g>
      <path
         id="rect6785-2-7-6-5-2-6-3-0"
         style="fill:#800000;fill-rule:evenodd;stroke-width:2.00449;stroke-linejoin:round;stop-color:#000000"
         d="m 133.92437,148.15412 1.9112,0.65058 -0.13733,-5.57313 -1.9112,-0.65059 z"
         sodipodi:nodetypes="ccccc" />
    </g>
    <g
       id="g9010"
       transform="rotate(12.896722,173.89267,144.75278)"
       inkscape:transform-center-x="8.4292062"
       inkscape:transform-center-y="3.8818954">
      <path
         id="rect6785-2-1-8-7-3-8"
         style="fill:#800000;fill-rule:evenodd;stroke-width:2.00449;stroke-linejoin:round;stop-color:#000000"
         d="m 174.72385,148.10019 1.54039,-1.30504 -4.85123,-2.74669 -1.5404,1.30505 z"
         sodipodi:nodetypes="ccccc" />
      <path
         id="rect6785-94-9-2-6"
         style="fill:#ffaaaa;fill-rule:evenodd;stroke-width:2.00449;stroke-linejoin:round;stop-color:#000000"
         d="m 173.32531,149.28505 -1.54039,1.30504 -1.9123,-5.23659 1.54039,-1.30504 z"
         sodipodi:nodetypes="ccccc" />
      <path
         id="rect6785-2-1-8-7-3"
         style="fill:#800000;fill-rule:evenodd;stroke-width:2.00449;stroke-linejoin:round;stop-color:#000000"
         d="m 171.78492,150.59009 1.54039,-1.30504 -4.85123,-2.74669 -1.5404,1.30505 z"
         sodipodi:nodetypes="ccccc" />
      <path
         id="rect6785-9-54-3-0-3"
         style="fill:#ffaaaa;fill-rule:evenodd;stroke-width:2.00449;stroke-linejoin:round;stop-color:#000000"
         d="m 170.38638,151.77495 -1.5404,1.30505 -1.9123,-5.23659 1.5404,-1.30504 z"
         sodipodi:nodetypes="ccccc" />
      <path
         id="rect6785-2-7-1-8-3-4"
         style="fill:#800000;fill-rule:evenodd;stroke-width:2.00449;stroke-linejoin:round;stop-color:#000000"
         d="m 168.84598,153.08 1.5404,-1.30505 -4.85124,-2.74668 -1.5404,1.30505 z"
         sodipodi:nodetypes="ccccc" />
      <path
         id="rect6785-9-5-5-5-4-4"
         style="fill:#ffaaaa;fill-rule:evenodd;stroke-width:2.00449;stroke-linejoin:round;stop-color:#000000"
         d="m 167.44744,154.26486 -1.5404,1.30505 -1.9123,-5.23659 1.5404,-1.30505 z"
         sodipodi:nodetypes="ccccc" />
      <path
         id="rect6785-2-7-6-5-2-6-3"
         style="fill:#800000;fill-rule:evenodd;stroke-width:2.00449;stroke-linejoin:round;stop-color:#000000"
         d="m 165.90704,155.56991 1.5404,-1.30505 -4.85124,-2.74668 -1.54039,1.30504 z"
         sodipodi:nodetypes="ccccc" />
      <path
         id="rect6785-9-5-5-5-4-4-95"
         style="fill:#ffaaaa;fill-rule:evenodd;stroke-width:2.00449;stroke-linejoin:round;stop-color:#000000"
         d="m 164.50851,156.75476 -1.5404,1.30505 -1.9123,-5.23659 1.5404,-1.30505 z"
         sodipodi:nodetypes="ccccc" />
      <path
         id="rect6785-2-7-6-5-2-6-3-02"
         style="fill:#800000;fill-rule:evenodd;stroke-width:2.00449;stroke-linejoin:round;stop-color:#000000"
         d="m 162.96811,158.05981 1.5404,-1.30505 -4.85124,-2.74668 -1.54039,1.30504 z"
         sodipodi:nodetypes="ccccc" />
    </g>
    <g
       id="g9052">
      <path
         id="rect6785-94-9-2"
         style="fill:#ffaaaa;fill-rule:evenodd;stroke-width:2.00449;stroke-linejoin:round;stop-color:#000000"
         d="m 183.40608,124.17359 -0.15771,2.01273 -5.06515,-2.32874 0.15772,-2.01273 z"
         sodipodi:nodetypes="ccccc" />
      <path
         id="rect6785-2-1-8-7"
         style="fill:#800000;fill-rule:evenodd;stroke-width:2.00449;stroke-linejoin:round;stop-color:#000000"
         d="m 183.24837,126.18632 0.15771,-2.01273 -5.36605,1.51137 -0.15772,2.01273 z"
         sodipodi:nodetypes="ccccc" />
      <path
         id="rect6785-9-54-3-0"
         style="fill:#ffaaaa;fill-rule:evenodd;stroke-width:2.00449;stroke-linejoin:round;stop-color:#000000"
         d="m 183.10518,128.0137 -0.15772,2.01273 -5.06515,-2.32874 0.15772,-2.01273 z"
         sodipodi:nodetypes="ccccc" />
      <path
         id="rect6785-2-7-1-8-3"
         style="fill:#800000;fill-rule:evenodd;stroke-width:2.00449;stroke-linejoin:round;stop-color:#000000"
         d="m 182.94746,130.02643 0.15772,-2.01273 -5.36606,1.51137 -0.15772,2.01273 z"
         sodipodi:nodetypes="ccccc" />
      <path
         id="rect6785-9-5-5-5-4"
         style="fill:#ffaaaa;fill-rule:evenodd;stroke-width:2.00449;stroke-linejoin:round;stop-color:#000000"
         d="m 182.80427,131.85381 -0.15772,2.01273 -5.06515,-2.32874 0.15772,-2.01273 z"
         sodipodi:nodetypes="ccccc" />
      <path
         id="rect6785-2-7-6-5-2-6"
         style="fill:#800000;fill-rule:evenodd;stroke-width:2.00449;stroke-linejoin:round;stop-color:#000000"
         d="m 182.64655,133.86654 0.15772,-2.01273 -5.36606,1.51137 -0.15771,2.01273 z"
         sodipodi:nodetypes="ccccc" />
      <path
         id="rect6785-9-5-5-5-4-7"
         style="fill:#ffaaaa;fill-rule:evenodd;stroke-width:2.00449;stroke-linejoin:round;stop-color:#000000"
         d="m 182.50337,135.69392 -0.15772,2.01273 -5.06515,-2.32874 0.15772,-2.01273 z"
         sodipodi:nodetypes="ccccc" />
    </g>
    <g
       id="g9150"
       transform="rotate(4.811737,170.97226,94.245339)">
      <path
         id="rect6785-2-1-8-2"
         style="fill:#800000;fill-rule:evenodd;stroke-width:2.00449;stroke-linejoin:round;stop-color:#000000"
         d="m 166.60365,100.3989 -1.6759,-1.12575 -1.31843,5.41669 1.6759,1.12575 z"
         sodipodi:nodetypes="ccccc" />
      <path
         id="rect6785-94-9"
         style="fill:#ffaaaa;fill-rule:evenodd;stroke-width:2.00449;stroke-linejoin:round;stop-color:#000000"
         d="m 168.12522,101.42098 1.6759,1.12575 -4.5159,3.26886 -1.6759,-1.12575 z"
         sodipodi:nodetypes="ccccc" />
      <path
         id="rect6785-2-1-8"
         style="fill:#800000;fill-rule:evenodd;stroke-width:2.00449;stroke-linejoin:round;stop-color:#000000"
         d="m 169.80112,102.54673 -1.6759,-1.12575 -1.31843,5.41669 1.6759,1.12575 z"
         sodipodi:nodetypes="ccccc" />
      <path
         id="rect6785-9-54-3"
         style="fill:#ffaaaa;fill-rule:evenodd;stroke-width:2.00449;stroke-linejoin:round;stop-color:#000000"
         d="m 171.32269,103.56882 1.6759,1.12575 -4.5159,3.26885 -1.6759,-1.12575 z"
         sodipodi:nodetypes="ccccc" />
      <path
         id="rect6785-2-7-1-8"
         style="fill:#800000;fill-rule:evenodd;stroke-width:2.00449;stroke-linejoin:round;stop-color:#000000"
         d="m 172.99859,104.69457 -1.6759,-1.12575 -1.31843,5.41668 1.67591,1.12575 z"
         sodipodi:nodetypes="ccccc" />
      <path
         id="rect6785-9-5-5-5"
         style="fill:#ffaaaa;fill-rule:evenodd;stroke-width:2.00449;stroke-linejoin:round;stop-color:#000000"
         d="m 174.52016,105.71665 1.6759,1.12575 -4.51589,3.26885 -1.67591,-1.12575 z"
         sodipodi:nodetypes="ccccc" />
      <path
         id="rect6785-2-7-6-5-2"
         style="fill:#800000;fill-rule:evenodd;stroke-width:2.00449;stroke-linejoin:round;stop-color:#000000"
         d="m 176.19606,106.8424 -1.6759,-1.12575 -1.31843,5.41669 1.67591,1.12575 z"
         sodipodi:nodetypes="ccccc" />
      <path
         id="rect6785-9-5-5-5-8"
         style="fill:#ffaaaa;fill-rule:evenodd;stroke-width:2.00449;stroke-linejoin:round;stop-color:#000000"
         d="m 177.71763,107.86449 1.6759,1.12575 -4.51589,3.26885 -1.67591,-1.12575 z"
         sodipodi:nodetypes="ccccc" />
      <path
         id="rect6785-2-7-6-5-2-1"
         style="fill:#800000;fill-rule:evenodd;stroke-width:2.00449;stroke-linejoin:round;stop-color:#000000"
         d="m 179.39353,108.99024 -1.6759,-1.12575 -1.31843,5.41669 1.67591,1.12575 z"
         sodipodi:nodetypes="ccccc" />
    </g>
    <circle
       style="display:inline;fill:url(#radialGradient4170-4);fill-opacity:1;fill-rule:evenodd;stroke:none;stroke-width:0.999067;stroke-linejoin:round;stop-color:#000000"
       id="path4140-0"
       cx="173.51167"
       cy="-19.200979"
       r="7.4073"
       transform="rotate(47.062307)" />
    <circle
       style="display:inline;fill:url(#radialGradient4170-4-9);fill-opacity:1;fill-rule:evenodd;stroke:none;stroke-width:0.999067;stroke-linejoin:round;stop-color:#000000"
       id="path4140-0-5"
       cx="190.91229"
       cy="0.96861464"
       r="7.4073"
       transform="rotate(47.062307)" />
    <circle
       style="display:inline;fill:url(#radialGradient4170-4-9-8);fill-opacity:1;fill-rule:evenodd;stroke:none;stroke-width:0.999067;stroke-linejoin:round;stop-color:#000000"
       id="path4140-0-5-7"
       cx="216.19336"
       cy="-8.6664534"
       r="7.4073"
       transform="rotate(47.062307)" />
    <circle
       style="display:inline;fill:url(#radialGradient4170-4-9-8-1);fill-opacity:1;fill-rule:evenodd;stroke:none;stroke-width:0.999067;stroke-linejoin:round;stop-color:#000000"
       id="path4140-0-5-7-0"
       cx="224.62572"
       cy="-34.682957"
       r="7.4073"
       transform="rotate(47.062307)" />
    <circle
       style="display:inline;fill:url(#radialGradient4170-4-9-8-1-9);fill-opacity:1;fill-rule:evenodd;stroke:none;stroke-width:0.999067;stroke-linejoin:round;stop-color:#000000"
       id="path4140-0-5-7-0-9"
       cx="207.98483"
       cy="-53.992016"
       r="7.4073"
       transform="rotate(47.062307)" />
    <circle
       style="display:inline;fill:url(#radialGradient4170-4-9-8-1-9-3);fill-opacity:1;fill-rule:evenodd;stroke:none;stroke-width:0.999067;stroke-linejoin:round;stop-color:#000000"
       id="path4140-0-5-7-0-9-3"
       cx="180.30347"
       cy="-48.262283"
       r="7.4073"
       transform="rotate(47.062307)" />
    <circle
       style="fill:#000080;stroke:#ffffff;stroke-width:0.343958;stroke-linejoin:round;stop-color:#000000"
       id="path9174"
       cx="155.42075"
       cy="128.3586"
       r="2.3898916" />
    <g
       inkscape:label=""
       transform="translate(66.247169,56.12882)"
       id="g10274"
       style="fill:#000080">
      <g
         id="g2389"
         style="fill:#000080">
        <g
           style="fill:#000080;fill-opacity:1"
           id="g4391">
          <use
             xlink:href="#symbol3068"
             x="94.207001"
             y="79.749001"
             id="use6836"
             width="100%"
             height="100%"
             style="fill:#000080" />
        </g>
        <g
           style="fill:#000080;fill-opacity:1"
           id="g9689">
          <use
             xlink:href="#symbol2719"
             x="91.925003"
             y="81.962997"
             id="use6745"
             width="100%"
             height="100%"
             style="fill:#000080" />
        </g>
      </g>
    </g>
    <path
       style="fill:none;stroke:#000080;stroke-width:0.965;stroke-linecap:round;stroke-linejoin:miter;stroke-miterlimit:4;stroke-dasharray:none;stroke-opacity:1;marker-end:url(#Arrow2Send)"
       d="m 152.73032,126.67 -12.2736,-8.19845"
       id="path10989"
       sodipodi:nodetypes="cc" />
    <path
       style="fill:none;stroke:#ff00ff;stroke-width:0.965;stroke-linecap:round;stroke-linejoin:miter;stroke-miterlimit:4;stroke-dasharray:none;stroke-opacity:1;marker-end:url(#Arrow2Send-9)"
       d="m 131.69742,114.46869 -24.31052,8.63899"
       id="path10989-9"
       sodipodi:nodetypes="cc" />
    <g
       inkscape:label=""
       transform="translate(-11.60447,34.420322)"
       id="g13742"
       style="fill:#ff00ff">
      <g
         id="g4843"
         style="fill:#ff00ff"
         transform="translate(4.8233926,18.476446)">
        <g
           style="fill:#ff00ff;fill-opacity:1"
           id="g2293">
          <use
             xlink:href="#symbol8175"
             x="91.925003"
             y="81.962997"
             id="use4782"
             style="fill:#ff00ff"
             width="100%"
             height="100%" />
        </g>
        <g
           style="fill:#ff00ff;fill-opacity:1"
           id="g5017">
          <use
             xlink:href="#symbol130"
             x="100.227"
             y="81.962997"
             id="use2132"
             style="fill:#ff00ff"
             width="100%"
             height="100%" />
        </g>
        <g
           style="fill:#ff00ff;fill-opacity:1"
           id="g2396">
          <use
             xlink:href="#symbol1456"
             x="107.29"
             y="81.962997"
             id="use7469"
             style="fill:#ff00ff"
             width="100%"
             height="100%" />
        </g>
        <g
           style="fill:#ff00ff;fill-opacity:1"
           id="g1010">
          <use
             xlink:href="#symbol9041"
             x="111.358"
             y="81.962997"
             id="use6738"
             style="fill:#ff00ff"
             width="100%"
             height="100%" />
        </g>
        <g
           style="fill:#ff00ff;fill-opacity:1"
           id="g4660">
          <use
             xlink:href="#symbol4974"
             x="118.745"
             y="83.457001"
             id="use5076"
             style="fill:#ff00ff"
             width="100%"
             height="100%" />
        </g>
        <g
           style="fill:#ff00ff;fill-opacity:1"
           id="g4178">
          <use
             xlink:href="#symbol9475"
             x="121.578"
             y="81.962997"
             id="use57"
             style="fill:#ff00ff"
             width="100%"
             height="100%" />
        </g>
      </g>
    </g>
    <g
       inkscape:label=""
       transform="translate(36.774873,22.021596)"
       id="g14547"
       style="fill:#000080">
      <g
         id="g8996"
         style="fill:#000080">
        <g
           style="fill:#000080;fill-opacity:1"
           id="g6774">
          <use
             xlink:href="#symbol9879"
             x="91.925003"
             y="81.962997"
             id="use1989"
             style="fill:#000080"
             width="100%"
             height="100%" />
        </g>
        <g
           style="fill:#000080;fill-opacity:1"
           id="g5900">
          <use
             xlink:href="#symbol9505"
             x="99.313004"
             y="83.457001"
             id="use4175"
             style="fill:#000080"
             width="100%"
             height="100%" />
        </g>
      </g>
    </g>
  </g>
</svg>
