<?xml version="1.0" encoding="UTF-8" standalone="no"?>
<!-- Created with Inkscape (http://www.inkscape.org/) -->

<svg
   version="1.1"
   id="svg2"
   xml:space="preserve"
   width="497.1694"
   height="225.66365"
   viewBox="0 0 497.16942 225.66365"
   sodipodi:docname="clHO.svg"
   inkscape:version="1.1.2 (0a00cf5339, 2022-02-04)"
   xmlns:inkscape="http://www.inkscape.org/namespaces/inkscape"
   xmlns:sodipodi="http://sodipodi.sourceforge.net/DTD/sodipodi-0.dtd"
   xmlns:xlink="http://www.w3.org/1999/xlink"
   xmlns="http://www.w3.org/2000/svg"
   xmlns:svg="http://www.w3.org/2000/svg"><defs
     id="defs6"><clipPath
   clipPathUnits="userSpaceOnUse"
   id="clipPath18"><path
     d="M 8.64,8.64 H 135.36 V 99.36 H 8.64 Z"
     id="path16" /></clipPath><clipPath
   clipPathUnits="userSpaceOnUse"
   id="clipPath28"><path
     d="M 8.64,8.64 H 135.36 V 99.36 H 8.64 Z"
     id="path26" /></clipPath><clipPath
   clipPathUnits="userSpaceOnUse"
   id="clipPath2130"><path
     d="M 8.64,8.64 H 135.36 V 99.36 H 8.64 Z"
     id="path2128" /></clipPath><clipPath
   clipPathUnits="userSpaceOnUse"
   id="clipPath2140"><path
     d="M 8.64,8.64 H 135.36 V 99.36 H 8.64 Z"
     id="path2138" /></clipPath><clipPath
   clipPathUnits="userSpaceOnUse"
   id="clipPath2399"><path
     d="M 8.64,8.64 H 135.36 V 99.36 H 8.64 Z"
     id="path2397" /></clipPath><clipPath
   clipPathUnits="userSpaceOnUse"
   id="clipPath2409"><path
     d="M 8.64,8.64 H 135.36 V 99.36 H 8.64 Z"
     id="path2407" /></clipPath><clipPath
   clipPathUnits="userSpaceOnUse"
   id="clipPath2672"><path
     d="M 8.64,8.64 H 135.36 V 99.36 H 8.64 Z"
     id="path2670" /></clipPath><clipPath
   clipPathUnits="userSpaceOnUse"
   id="clipPath2682"><path
     d="M 8.64,8.64 H 135.36 V 99.36 H 8.64 Z"
     id="path2680" /></clipPath><clipPath
   clipPathUnits="userSpaceOnUse"
   id="clipPath3017"><path
     d="m 90,334 v 908 H 1358 V 334 Z"
     id="path3015" /></clipPath><clipPath
   clipPathUnits="userSpaceOnUse"
   id="clipPath3084"><path
     d="m 88.8711,333.672 h 1267.19 V 1240.86 H 88.8711 Z"
     id="path3082" /></clipPath><clipPath
   clipPathUnits="userSpaceOnUse"
   id="clipPath3151"><path
     d="m 88.8711,347.852 h 1267.19 V 1255.04 H 88.8711 Z"
     id="path3149" /></clipPath><filter
   style="color-interpolation-filters:sRGB"
   inkscape:label="Drop Shadow"
   id="filter4316"
   x="-0.11727564"
   y="-0.18454931"
   width="1.3206336"
   height="1.2930026"><feFlood
     flood-opacity="0.498039"
     flood-color="rgb(0,0,0)"
     result="flood"
     id="feFlood4306" /><feComposite
     in="flood"
     in2="SourceGraphic"
     operator="in"
     result="composite1"
     id="feComposite4308" /><feGaussianBlur
     in="composite1"
     stdDeviation="7.06058"
     result="blur"
     id="feGaussianBlur4310" /><feOffset
     dx="12.4382"
     dy="-11.8897"
     result="offset"
     id="feOffset4312" /><feComposite
     in="SourceGraphic"
     in2="offset"
     operator="over"
     result="composite2"
     id="feComposite4314" /></filter><filter
   style="color-interpolation-filters:sRGB"
   inkscape:label="Drop Shadow"
   id="filter4346"
   x="-0.11727564"
   y="-0.18454931"
   width="1.3206336"
   height="1.2930026"><feFlood
     flood-opacity="0.498039"
     flood-color="rgb(0,0,0)"
     result="flood"
     id="feFlood4336" /><feComposite
     in="flood"
     in2="SourceGraphic"
     operator="in"
     result="composite1"
     id="feComposite4338" /><feGaussianBlur
     in="composite1"
     stdDeviation="7.06058"
     result="blur"
     id="feGaussianBlur4340" /><feOffset
     dx="12.4382"
     dy="-11.8897"
     result="offset"
     id="feOffset4342" /><feComposite
     in="SourceGraphic"
     in2="offset"
     operator="over"
     result="composite2"
     id="feComposite4344" /></filter><filter
   style="color-interpolation-filters:sRGB"
   inkscape:label="Drop Shadow"
   id="filter4436"
   x="-0.11727564"
   y="-0.18454932"
   width="1.3206336"
   height="1.2930026"><feFlood
     flood-opacity="0.498039"
     flood-color="rgb(0,0,0)"
     result="flood"
     id="feFlood4426" /><feComposite
     in="flood"
     in2="SourceGraphic"
     operator="in"
     result="composite1"
     id="feComposite4428" /><feGaussianBlur
     in="composite1"
     stdDeviation="7.06058"
     result="blur"
     id="feGaussianBlur4430" /><feOffset
     dx="12.4382"
     dy="-11.8897"
     result="offset"
     id="feOffset4432" /><feComposite
     in="SourceGraphic"
     in2="offset"
     operator="over"
     result="composite2"
     id="feComposite4434" /></filter><filter
   style="color-interpolation-filters:sRGB"
   inkscape:label="Drop Shadow"
   id="filter4507"
   x="-0.11727525"
   y="-0.18454744"
   width="1.3206325"
   height="1.2929996"><feFlood
     flood-opacity="0.498039"
     flood-color="rgb(0,0,0)"
     result="flood"
     id="feFlood4497" /><feComposite
     in="flood"
     in2="SourceGraphic"
     operator="in"
     result="composite1"
     id="feComposite4499" /><feGaussianBlur
     in="composite1"
     stdDeviation="7.06058"
     result="blur"
     id="feGaussianBlur4501" /><feOffset
     dx="12.4382"
     dy="-11.8897"
     result="offset"
     id="feOffset4503" /><feComposite
     in="SourceGraphic"
     in2="offset"
     operator="over"
     result="composite2"
     id="feComposite4505" /></filter><g
   id="g6713">
      <symbol
   overflow="visible"
   id="symbol1007">
        <path
   style="stroke:none"
   d=""
   id="path7851" />
      </symbol>
      <symbol
   overflow="visible"
   id="symbol2681">
        <path
   style="stroke:none"
   d="m 2.828125,-6.234375 c 0,-0.203125 -0.140625,-0.359375 -0.359375,-0.359375 -0.28125,0 -0.546875,0.265625 -0.546875,0.53125 0,0.1875 0.140625,0.359375 0.375,0.359375 0.234375,0 0.53125,-0.234375 0.53125,-0.53125 z m -0.75,3.75 c 0.109375,-0.28125 0.109375,-0.3125 0.21875,-0.578125 0.078125,-0.203125 0.125,-0.34375 0.125,-0.53125 0,-0.4375 -0.3125,-0.8125 -0.8125,-0.8125 -0.9375,0 -1.3125,1.453125 -1.3125,1.53125 0,0.109375 0.09375,0.109375 0.109375,0.109375 0.109375,0 0.109375,-0.03125 0.15625,-0.1875 0.28125,-0.9375 0.671875,-1.234375 1.015625,-1.234375 0.078125,0 0.25,0 0.25,0.3125 0,0.21875 -0.078125,0.421875 -0.109375,0.53125 -0.078125,0.25 -0.53125,1.40625 -0.6875,1.84375 -0.109375,0.25 -0.234375,0.578125 -0.234375,0.796875 0,0.46875 0.34375,0.8125 0.8125,0.8125 0.9375,0 1.3125,-1.4375 1.3125,-1.53125 0,-0.109375 -0.09375,-0.109375 -0.125,-0.109375 -0.09375,0 -0.09375,0.03125 -0.140625,0.1875 -0.1875,0.625 -0.515625,1.234375 -1.015625,1.234375 -0.171875,0 -0.25,-0.09375 -0.25,-0.328125 0,-0.25 0.0625,-0.390625 0.296875,-1 z m 0,0"
   id="path3808" />
      </symbol>
      <symbol
   overflow="visible"
   id="symbol1858">
        <path
   style="stroke:none"
   d=""
   id="path8876" />
      </symbol>
      <symbol
   overflow="visible"
   id="symbol4624">
        <path
   style="stroke:none"
   d="m 6.84375,-3.265625 c 0.15625,0 0.34375,0 0.34375,-0.1875 C 7.1875,-3.65625 7,-3.65625 6.859375,-3.65625 h -5.96875 c -0.140625,0 -0.328125,0 -0.328125,0.203125 0,0.1875 0.1875,0.1875 0.328125,0.1875 z m 0.015625,1.9375 c 0.140625,0 0.328125,0 0.328125,-0.203125 0,-0.1875 -0.1875,-0.1875 -0.34375,-0.1875 H 0.890625 c -0.140625,0 -0.328125,0 -0.328125,0.1875 0,0.203125 0.1875,0.203125 0.328125,0.203125 z m 0,0"
   id="path6937" />
      </symbol>
      <symbol
   overflow="visible"
   id="symbol5194">
        <path
   style="stroke:none"
   d="m 2.9375,-6.375 c 0,-0.25 0,-0.265625 -0.234375,-0.265625 C 2.078125,-6 1.203125,-6 0.890625,-6 v 0.3125 c 0.203125,0 0.78125,0 1.296875,-0.265625 v 5.171875 c 0,0.359375 -0.03125,0.46875 -0.921875,0.46875 h -0.3125 V 0 c 0.34375,-0.03125 1.203125,-0.03125 1.609375,-0.03125 0.390625,0 1.265625,0 1.609375,0.03125 v -0.3125 h -0.3125 c -0.90625,0 -0.921875,-0.109375 -0.921875,-0.46875 z m 0,0"
   id="path1767" />
      </symbol>
    </g>
  <g
   id="g8988">
      <symbol
   overflow="visible"
   id="symbol3931">
        <path
   style="stroke:none"
   d=""
   id="path5858" />
      </symbol>
      <symbol
   overflow="visible"
   id="symbol4216">
        <path
   style="stroke:none"
   d="m 2.828125,-6.234375 c 0,-0.203125 -0.140625,-0.359375 -0.359375,-0.359375 -0.28125,0 -0.546875,0.265625 -0.546875,0.53125 0,0.1875 0.140625,0.359375 0.375,0.359375 0.234375,0 0.53125,-0.234375 0.53125,-0.53125 z m -0.75,3.75 c 0.109375,-0.28125 0.109375,-0.3125 0.21875,-0.578125 0.078125,-0.203125 0.125,-0.34375 0.125,-0.53125 0,-0.4375 -0.3125,-0.8125 -0.8125,-0.8125 -0.9375,0 -1.3125,1.453125 -1.3125,1.53125 0,0.109375 0.09375,0.109375 0.109375,0.109375 0.109375,0 0.109375,-0.03125 0.15625,-0.1875 0.28125,-0.9375 0.671875,-1.234375 1.015625,-1.234375 0.078125,0 0.25,0 0.25,0.3125 0,0.21875 -0.078125,0.421875 -0.109375,0.53125 -0.078125,0.25 -0.53125,1.40625 -0.6875,1.84375 -0.109375,0.25 -0.234375,0.578125 -0.234375,0.796875 0,0.46875 0.34375,0.8125 0.8125,0.8125 0.9375,0 1.3125,-1.4375 1.3125,-1.53125 0,-0.109375 -0.09375,-0.109375 -0.125,-0.109375 -0.09375,0 -0.09375,0.03125 -0.140625,0.1875 -0.1875,0.625 -0.515625,1.234375 -1.015625,1.234375 -0.171875,0 -0.25,-0.09375 -0.25,-0.328125 0,-0.25 0.0625,-0.390625 0.296875,-1 z m 0,0"
   id="path6256" />
      </symbol>
      <symbol
   overflow="visible"
   id="symbol5945">
        <path
   style="stroke:none"
   d=""
   id="path6201" />
      </symbol>
      <symbol
   overflow="visible"
   id="symbol8875">
        <path
   style="stroke:none"
   d="m 6.84375,-3.265625 c 0.15625,0 0.34375,0 0.34375,-0.1875 C 7.1875,-3.65625 7,-3.65625 6.859375,-3.65625 h -5.96875 c -0.140625,0 -0.328125,0 -0.328125,0.203125 0,0.1875 0.1875,0.1875 0.328125,0.1875 z m 0.015625,1.9375 c 0.140625,0 0.328125,0 0.328125,-0.203125 0,-0.1875 -0.1875,-0.1875 -0.34375,-0.1875 H 0.890625 c -0.140625,0 -0.328125,0 -0.328125,0.1875 0,0.203125 0.1875,0.203125 0.328125,0.203125 z m 0,0"
   id="path852" />
      </symbol>
      <symbol
   overflow="visible"
   id="symbol1027">
        <path
   style="stroke:none"
   d="m 2.9375,-6.375 c 0,-0.25 0,-0.265625 -0.234375,-0.265625 C 2.078125,-6 1.203125,-6 0.890625,-6 v 0.3125 c 0.203125,0 0.78125,0 1.296875,-0.265625 v 5.171875 c 0,0.359375 -0.03125,0.46875 -0.921875,0.46875 h -0.3125 V 0 c 0.34375,-0.03125 1.203125,-0.03125 1.609375,-0.03125 0.390625,0 1.265625,0 1.609375,0.03125 v -0.3125 h -0.3125 c -0.90625,0 -0.921875,-0.109375 -0.921875,-0.46875 z m 0,0"
   id="path83" />
      </symbol>
    </g>
  <g
   id="g2714">
      <symbol
   overflow="visible"
   id="symbol8092">
        <path
   style="stroke:none"
   d=""
   id="path9248" />
      </symbol>
      <symbol
   overflow="visible"
   id="symbol4488">
        <path
   style="stroke:none"
   d="m 2.140625,-6.296875 h 0.625 l 0.125,-0.625 c -0.203125,0 -0.4375,0 -0.625,0.03125 -0.0625,0.171875 -0.09375,0.390625 -0.125,0.59375 z m -0.34375,1.59375 -1,4.703125 C 1,0 1.234375,0.015625 1.421875,-0.015625 L 1.453125,-0.125 2.421875,-4.703125 Z m 0,0"
   id="path5481" />
      </symbol>
      <symbol
   overflow="visible"
   id="symbol6459">
        <path
   style="stroke:none"
   d=""
   id="path9384" />
      </symbol>
      <symbol
   overflow="visible"
   id="symbol3500">
        <path
   style="stroke:none"
   d="m 0.703125,-3.78125 c -0.1875,0.046875 -0.1875,0.328125 0.03125,0.375 0.046875,0.015625 0.125,0 0.1875,0 H 6.90625 c 0.078125,0 0.15625,0 0.21875,-0.046875 0.125,-0.109375 0.046875,-0.328125 -0.109375,-0.34375 -0.140625,-0.015625 -0.28125,0 -0.421875,0 H 0.875 c -0.046875,0 -0.125,-0.015625 -0.171875,0.015625 z M 0.59375,-1.765625 c -0.078125,0.109375 0,0.265625 0.109375,0.296875 0.0625,0.015625 0.125,0 0.1875,0 h 6.03125 c 0.078125,0 0.140625,0 0.203125,-0.0625 C 7.25,-1.640625 7.171875,-1.84375 7,-1.859375 c -0.140625,-0.015625 -0.28125,0 -0.421875,0 h -5.6875 C 0.75,-1.859375 0.65625,-1.875 0.59375,-1.765625 Z m 0,0"
   id="path5387" />
      </symbol>
      <symbol
   overflow="visible"
   id="symbol7194">
        <path
   style="stroke:none"
   d="m 1.046875,-6.046875 v 0.5 c 0.546875,0 0.921875,-0.109375 1.359375,-0.296875 V -0.5 H 1.109375 V 0 h 3.25 V -0.5 H 3.0625 v -6.203125 c -0.234375,0 -0.203125,0.046875 -0.390625,0.1875 -0.40625,0.3125 -0.984375,0.46875 -1.625,0.46875 z m 0,0"
   id="path5258" />
      </symbol>
    </g>
  <g
   id="g9937">
      <symbol
   overflow="visible"
   id="symbol9195">
        <path
   style="stroke:none"
   d=""
   id="path3827" />
      </symbol>
      <symbol
   overflow="visible"
   id="symbol3342">
        <path
   style="stroke:none"
   d="m 2.140625,-6.296875 h 0.625 l 0.125,-0.625 c -0.203125,0 -0.4375,0 -0.625,0.03125 -0.0625,0.171875 -0.09375,0.390625 -0.125,0.59375 z m -0.34375,1.59375 -1,4.703125 C 1,0 1.234375,0.015625 1.421875,-0.015625 L 1.453125,-0.125 2.421875,-4.703125 Z m 0,0"
   id="path1248" />
      </symbol>
      <symbol
   overflow="visible"
   id="symbol4378">
        <path
   style="stroke:none"
   d=""
   id="path1899" />
      </symbol>
      <symbol
   overflow="visible"
   id="symbol3727">
        <path
   style="stroke:none"
   d="m 0.703125,-3.78125 c -0.1875,0.046875 -0.1875,0.328125 0.03125,0.375 0.046875,0.015625 0.125,0 0.1875,0 H 6.90625 c 0.078125,0 0.15625,0 0.21875,-0.046875 0.125,-0.109375 0.046875,-0.328125 -0.109375,-0.34375 -0.140625,-0.015625 -0.28125,0 -0.421875,0 H 0.875 c -0.046875,0 -0.125,-0.015625 -0.171875,0.015625 z M 0.59375,-1.765625 c -0.078125,0.109375 0,0.265625 0.109375,0.296875 0.0625,0.015625 0.125,0 0.1875,0 h 6.03125 c 0.078125,0 0.140625,0 0.203125,-0.0625 C 7.25,-1.640625 7.171875,-1.84375 7,-1.859375 c -0.140625,-0.015625 -0.28125,0 -0.421875,0 h -5.6875 C 0.75,-1.859375 0.65625,-1.875 0.59375,-1.765625 Z m 0,0"
   id="path3519" />
      </symbol>
      <symbol
   overflow="visible"
   id="symbol5742">
        <path
   style="stroke:none"
   d="m 0.8125,-4.578125 c 0.125,-0.578125 0.390625,-1.25 0.96875,-1.5 0.234375,-0.09375 0.484375,-0.109375 0.71875,-0.09375 0.484375,0.046875 0.984375,0.25 1.28125,0.65625 0.203125,0.296875 0.28125,0.6875 0.25,1.046875 -0.125,1.078125 -1.1875,1.84375 -1.875,2.421875 L 0.78125,-0.78125 0.625,-0.625 C 0.53125,-0.53125 0.515625,-0.53125 0.515625,-0.34375 V 0 h 4.1875 V -0.5625 H 1.09375 C 1.421875,-0.875 2.734375,-2.03125 2.921875,-2.171875 3.5,-2.640625 4.15625,-3.125 4.5,-3.8125 4.90625,-4.609375 4.6875,-5.609375 4.015625,-6.1875 3.234375,-6.859375 1.859375,-6.921875 1.09375,-6.203125 0.84375,-5.9375 0.640625,-5.609375 0.515625,-5.25 c -0.03125,0.0625 -0.078125,0.140625 -0.0625,0.21875 0,0.0625 0.0625,0.109375 0.09375,0.140625 0.078125,0.109375 0.15625,0.21875 0.265625,0.3125 z m 0,0"
   id="path8386" />
      </symbol>
    </g>
  <g
   id="g6903">
      <symbol
   overflow="visible"
   id="symbol2985">
        <path
   style="stroke:none"
   d=""
   id="path5578" />
      </symbol>
      <symbol
   overflow="visible"
   id="symbol6799">
        <path
   style="stroke:none"
   d="m 2.140625,-6.296875 h 0.625 l 0.125,-0.625 c -0.203125,0 -0.4375,0 -0.625,0.03125 -0.0625,0.171875 -0.09375,0.390625 -0.125,0.59375 z m -0.34375,1.59375 -1,4.703125 C 1,0 1.234375,0.015625 1.421875,-0.015625 L 1.453125,-0.125 2.421875,-4.703125 Z m 0,0"
   id="path8692" />
      </symbol>
      <symbol
   overflow="visible"
   id="symbol4293">
        <path
   style="stroke:none"
   d="m 2.21875,-3.734375 0.1875,-0.96875 H 1.796875 L 0.8125,0 H 1.25 C 1.34375,0 1.46875,0.03125 1.46875,-0.09375 1.484375,-0.171875 1.5,-0.234375 1.515625,-0.3125 1.640625,-0.890625 2,-2.703125 2.09375,-3 2.28125,-3.5625 2.703125,-4.203125 3.375,-4.28125 3.8125,-4.3125 4.203125,-4.203125 4.359375,-3.90625 4.5,-3.609375 4.390625,-3.265625 4.328125,-2.953125 L 3.703125,0 h 0.46875 c 0.09375,0 0.1875,0.015625 0.1875,-0.109375 0.0625,-0.203125 0.203125,-0.9375 0.203125,-0.9375 L 5,-3.15625 C 5.078125,-3.53125 5.171875,-3.984375 4.96875,-4.34375 4.78125,-4.640625 4.453125,-4.75 4.109375,-4.78125 3.953125,-4.796875 3.796875,-4.796875 3.640625,-4.765625 3.203125,-4.6875 2.796875,-4.421875 2.5,-4.09375 2.40625,-3.984375 2.28125,-3.875 2.21875,-3.734375 Z m -0.015625,0 c 0,0 0.015625,0 0.015625,0 0,0.015625 -0.015625,0.03125 -0.015625,0 z m 0,0"
   id="path521" />
      </symbol>
      <symbol
   overflow="visible"
   id="symbol6010">
        <path
   style="stroke:none"
   d=""
   id="path5374" />
      </symbol>
      <symbol
   overflow="visible"
   id="symbol2183">
        <path
   style="stroke:none"
   d="m 0.703125,-3.78125 c -0.1875,0.046875 -0.1875,0.328125 0.03125,0.375 0.046875,0.015625 0.125,0 0.1875,0 H 6.90625 c 0.078125,0 0.15625,0 0.21875,-0.046875 0.125,-0.109375 0.046875,-0.328125 -0.109375,-0.34375 -0.140625,-0.015625 -0.28125,0 -0.421875,0 H 0.875 c -0.046875,0 -0.125,-0.015625 -0.171875,0.015625 z M 0.59375,-1.765625 c -0.078125,0.109375 0,0.265625 0.109375,0.296875 0.0625,0.015625 0.125,0 0.1875,0 h 6.03125 c 0.078125,0 0.140625,0 0.203125,-0.0625 C 7.25,-1.640625 7.171875,-1.84375 7,-1.859375 c -0.140625,-0.015625 -0.28125,0 -0.421875,0 h -5.6875 C 0.75,-1.859375 0.65625,-1.875 0.59375,-1.765625 Z m 0,0"
   id="path634" />
      </symbol>
    </g>
  <g
   id="g4923">
      <symbol
   overflow="visible"
   id="symbol4906">
        <path
   style="stroke:none"
   d=""
   id="path732" />
      </symbol>
      <symbol
   overflow="visible"
   id="symbol4639">
        <path
   style="stroke:none"
   d="M 1.0625,-0.78125 V 0 h 0.78125 v -0.78125 z m 0,0"
   id="path1596" />
      </symbol>
    </g>
  </defs><sodipodi:namedview
     id="namedview4"
     pagecolor="#ffffff"
     bordercolor="#666666"
     borderopacity="1.0"
     inkscape:pageshadow="2"
     inkscape:pageopacity="0.0"
     inkscape:pagecheckerboard="0"
     showgrid="false"
     inkscape:snap-global="false"
     inkscape:zoom="1.1355447"
     inkscape:cx="230.28595"
     inkscape:cy="351.81353"
     inkscape:window-width="2490"
     inkscape:window-height="1376"
     inkscape:window-x="0"
     inkscape:window-y="0"
     inkscape:window-maximized="1"
     inkscape:current-layer="g8" /><g
     id="g8"
     inkscape:groupmode="layer"
     inkscape:label="clHO"
     transform="matrix(1.33333,0,0,-1.33333,174.61565,58.497016)"><g
       id="g4495"
       style="stroke-width:1.40197;filter:url(#filter4507)"
       transform="matrix(0.71065835,0,0,0.71593039,-70.025375,-6.5870115)"><rect
         style="fill:#ffffff;stroke:#ffffff;stroke-width:1.36691;stroke-linejoin:round;stop-color:#000000"
         id="rect3853"
         width="140.39088"
         height="100.17"
         x="266.83679"
         y="-27.627106"
         transform="scale(1,-1)" /><g
         id="g2981"
         transform="translate(182.97973,72.082704)"
         style="stroke-width:1.40197"><path
           id="path893"
           style="fill:#000000;stroke:none;stroke-width:0.140197"
           d="M 226.58359,-18.546547 H 82.091107 V -96.67065 -174.79413 H 226.58359 Z m -100.72742,-11.13991 c 2.18624,0.0207 4.38941,-0.14509 4.80256,-0.51707 0.82629,-0.74404 0.78071,-12.06996 -0.0914,-12.68999 -0.41315,-0.33068 -2.20359,-0.45444 -5.14147,-0.37181 l -4.54435,0.12413 -0.13785,6.15911 c -0.0919,4.17489 0.0454,6.32416 0.41287,6.69618 0.34429,0.37202 2.51345,0.57882 4.69969,0.59945 z m -29.350643,-0.0207 c 3.121556,0 4.452763,-0.16546 4.820043,-0.57886 0.36725,-0.37203 0.50469,-2.52129 0.41288,-6.69619 l -0.13717,-6.15907 -4.545028,-0.12413 c -2.937934,-0.0826 -4.728329,0.0413 -5.141475,0.37181 -0.780389,0.57869 -0.918058,11.11916 -0.183574,12.40055 0.413146,0.70271 1.010098,0.78592 4.774324,0.78592 z m 58.483423,0 c 2.20345,0 4.26873,-0.16583 4.59007,-0.33118 0.41314,-0.28934 0.55109,-1.90114 0.45928,-6.73739 l -0.13785,-6.36558 -4.59007,-0.12413 c -3.90194,-0.0826 -4.68247,0 -5.14147,0.62003 -0.41315,0.45472 -0.59714,2.39764 -0.59714,6.1591 0,6.8617 -0.0454,6.77915 5.41718,6.77915 z m 29.2417,0 c 2.18046,0 4.36063,-0.1658 4.72792,-0.49648 0.78039,-0.70271 0.78039,-11.9455 0,-12.64824 -0.36729,-0.33064 -2.11131,-0.49648 -4.72792,-0.49648 -2.6166,0 -4.36135,0.16584 -4.72859,0.49648 -0.36728,0.33072 -0.55072,2.35565 -0.55072,6.32383 0,3.96817 0.18344,5.99372 0.55072,6.32441 0.36724,0.33068 2.5481,0.49648 4.72859,0.49648 z m 29.24103,0 c 3.02974,0 4.13201,-0.1658 4.68289,-0.66182 0.96401,-0.82667 1.05526,-11.16038 0.13716,-12.27643 -0.45906,-0.62003 -1.2389,-0.70266 -5.14078,-0.62003 l -4.59076,0.12413 -0.13786,6.36558 c -0.0918,4.83625 0.0461,6.44805 0.45929,6.73739 0.32129,0.16535 2.38661,0.33118 4.59006,0.33118 z M 105.32525,-49.837488 c 12.48048,0.0104 29.67157,-4.1e-4 48.56157,-0.0418 l 68.67423,-0.0824 V -96.463655 -142.96572 H 153.70324 84.84542 v 46.419113 c 0,25.545121 0.09176,46.543539 0.183575,46.626159 0.0459,0.0414 7.815776,0.0727 20.296255,0.083 z m 20.51343,-100.543052 c 2.10017,-0.0362 4.20038,-0.27328 4.63648,-0.68663 0.59676,-0.49602 0.73498,-1.6947 0.73498,-6.36558 0,-7.06831 0.0454,-7.02738 -5.09575,-7.02738 -5.64634,0 -5.4629,-0.24789 -5.4629,6.94443 0,4.21619 0.18348,6.28315 0.55072,6.61383 0.4361,0.39269 2.53631,0.5575 4.63647,0.52133 z m -29.103855,-0.0254 c 2.47888,0 4.177735,-0.16522 4.545025,-0.4959 0.36725,-0.33069 0.55073,-2.39765 0.55073,-6.61383 0,-7.19232 0.18357,-6.94443 -5.325053,-6.94443 -5.187334,0 -5.232917,0.0416 -5.232917,7.06855 0,7.06832 -0.09232,6.98561 5.462215,6.98561 z m 58.345575,0 c 2.43297,0 4.17728,-0.20656 4.49862,-0.4959 0.36724,-0.33069 0.55141,-2.39765 0.55141,-6.61383 0,-7.15099 0.13758,-6.94443 -5.14148,-6.94443 -5.32505,0 -5.41718,0.0829 -5.41718,6.90325 0,7.15099 0,7.15091 5.50863,7.15091 z m 58.34557,0 c 3.6265,0 4.08587,-0.0828 4.7286,-0.90946 0.59671,-0.74403 0.73429,-2.10809 0.73429,-6.20027 0,-6.6963 -0.18371,-6.94443 -5.32505,-6.94443 -5.41681,0 -5.23292,-0.20656 -5.23292,6.94443 0,4.21618 0.18344,6.28314 0.55073,6.61383 0.36724,0.33068 2.06546,0.4959 4.54435,0.4959 z m -29.26996,-0.0157 c 1.94523,0.005 3.90732,-0.12913 4.48113,-0.39781 0.78039,-0.41335 0.87216,-0.9503 0.87216,-6.61322 0,-7.27499 0.18407,-7.02739 -5.27865,-7.02739 -5.46275,0 -5.27931,-0.2476 -5.27931,7.02739 0,5.4149 0.092,6.20003 0.82642,6.57204 0.50496,0.28935 2.43302,0.43382 4.37825,0.43899 z"
           sodipodi:nodetypes="ccccccsscccccssccccccsscccccsssssssssssccccccssccccccsssscsssssssssssssssssscsssssscssscs" /><g
           id="g2666"
           transform="translate(82.480298,-150.77358)"
           style="stroke-width:1.40197"><g
             id="g2668"
             clip-path="url(#clipPath2672)"
             style="stroke-width:1.40197"><path
               d="m 14.4,95.236364 3.6864,-10.218701 3.6864,-9.543084 3.6864,-8.867468 3.2256,-7.204817 3.2256,-6.687549 3.2256,-6.17028 3.2256,-5.65301 2.7648,-4.433734 2.7648,-4.053699 2.7648,-3.673666 2.7648,-3.29363 2.7648,-2.913597 2.304,-2.137693 2.304,-1.87378 2.304,-1.609868 2.304,-1.345955 2.304,-1.082042 2.304,-0.81813 2.304,-0.554216 2.304,-0.290304 2.304,-0.02639 2.304,0.237522 2.304,0.501434 2.304,0.765347 2.304,1.02926 2.304,1.293172 2.304,1.557085 2.304,1.820998 2.304,2.08491 2.304,2.348824 2.7648,3.166952 2.7648,3.546987 2.7648,3.927022 2.7648,4.307056 2.7648,4.68709 3.2256,5.948592 3.2256,6.465862 3.2256,6.983131 3.2256,7.5004 3.2256,8.017668 3.6864,9.796441 2.304,6.465862 v 0"
               style="fill:none;stroke:#000000;stroke-width:2.80391;stroke-linecap:square;stroke-linejoin:round;stroke-miterlimit:10;stroke-dasharray:none;stroke-opacity:1"
               id="path2674" /></g></g><g
           id="g2676"
           transform="translate(82.480298,-150.77358)"
           style="stroke-width:1.40197"><g
             id="g2678"
             clip-path="url(#clipPath2682)"
             style="stroke-width:1.40197"><path
               d="m 73.020859,12.613801 c 1.060812,0 2.078319,0.421465 2.828427,1.171572 0.750107,0.750108 1.171573,1.767615 1.171573,2.828428 0,1.060812 -0.421466,2.078319 -1.171573,2.828427 -0.750108,0.750107 -1.767615,1.171573 -2.828427,1.171573 -1.060813,0 -2.07832,-0.421466 -2.828428,-1.171573 -0.750107,-0.750108 -1.171572,-1.767615 -1.171572,-2.828427 0,-1.060813 0.421465,-2.07832 1.171572,-2.828428 0.750108,-0.750107 1.767615,-1.171572 2.828428,-1.171572 z"
               style="fill:#ff0000;fill-opacity:1;fill-rule:nonzero;stroke:#000000;stroke-width:2.10293;stroke-linecap:butt;stroke-linejoin:round;stroke-miterlimit:10;stroke-dasharray:none;stroke-opacity:1"
               id="path2684" /></g></g></g></g><g
       id="g3426"
       transform="matrix(0.71065812,0,0,0.71592981,34.46317,-57.513752)"
       style="stroke-width:1.40197;filter:url(#filter4346)"><rect
         style="fill:#ffffff;stroke:#ffffff;stroke-width:1.36691;stroke-linejoin:round;stop-color:#000000"
         id="rect3335"
         width="138.84932"
         height="98.571892"
         x="-91.221535"
         y="-65.23555"
         transform="scale(1,-1)" /><g
         id="g3115"
         transform="translate(-175.29385,112.36196)"
         style="stroke-width:1.40197"><g
           id="g3074"
           transform="matrix(0.1,0,0,0.1,82.234298,-175.65058)"
           style="stroke-width:1.40197"><path
             d="M 1444.92,1570 H 0 V 7.54 H 1444.92 Z M 437.66,1458.59 c 21.871,0.2 43.899,-1.44 48,-5.15 8.289,-7.46 7.82,-120.71 -0.89,-126.92 -4.149,-3.28 -22.04,-4.53 -51.411,-3.71 l -45.468,1.25 -1.371,61.6 c -0.899,41.72 0.468,63.21 4.14,66.96 3.442,3.71 25.121,5.78 47,5.97 z m -293.519,-0.19 c 31.211,0 44.531,-1.64 48.199,-5.78 3.68,-3.75 5.039,-25.24 4.14,-67 l -1.359,-61.56 -45.473,-1.25 c -29.378,-0.82 -47.269,0.43 -51.4097,3.71 -7.8086,5.78 -9.1797,111.21 -1.8281,124.03 4.1408,7.03 10.0698,7.85 47.7308,7.85 z m 584.839,0 c 22.04,0 42.7,-1.68 45.899,-3.32 4.141,-2.89 5.512,-19.03 4.57,-67.38 l -1.359,-63.64 -45.899,-1.25 c -39.031,-0.82 -46.839,0 -51.41,6.21 -4.14,4.53 -5.98,23.95 -5.98,61.57 0,68.63 -0.461,67.81 54.179,67.81 z m 292.43,0 c 21.79,0 43.59,-1.68 47.26,-4.96 7.81,-7.03 7.81,-119.46 0,-126.49 -3.67,-3.32 -21.09,-4.96 -47.26,-4.96 -26.18,0 -43.64,1.64 -47.308,4.96 -3.672,3.32 -5.512,23.56 -5.512,63.25 0,39.68 1.84,59.92 5.512,63.24 3.668,3.28 25.507,4.96 47.308,4.96 z m 292.38,0 c 30.31,0 41.33,-1.68 46.83,-6.64 9.65,-8.24 10.55,-111.6 1.37,-122.74 -4.57,-6.21 -12.38,-7.03 -51.4,-6.21 l -45.9,1.25 -1.37,63.64 c -0.94,48.35 0.47,64.49 4.57,67.38 3.24,1.64 23.87,3.32 45.9,3.32 z M 232.34,1257.11 c 124.808,0.08 296.719,-0.04 485.629,-0.43 l 686.721,-0.82 V 325.82 H 27.5391 V 790 c 0,255.47 0.9414,465.43 1.8398,466.25 0.4609,0.43 78.1601,0.74 202.9611,0.86 z M 437.461,251.641 c 21.019,-0.352 42.027,-2.692 46.367,-6.84 5.973,-4.961 7.344,-16.949 7.344,-63.672 0,-70.66 0.469,-70.27 -50.942,-70.27 -56.48,0 -54.64,-2.461 -54.64,69.45 0,42.152 1.832,62.812 5.5,66.14 4.379,3.942 25.39,5.582 46.371,5.192 z M 146.449,251.41 c 24.762,0 41.75,-1.64 45.43,-4.961 3.672,-3.328 5.5,-23.988 5.5,-66.14 0,-71.911 1.84,-69.45 -53.238,-69.45 -51.8715,0 -52.3402,0.43 -52.3402,70.7 0,70.671 -0.9024,69.851 54.6482,69.851 z m 583.43,0 c 24.34,0 41.801,-2.07 45,-4.961 3.672,-3.328 5.512,-23.988 5.512,-66.14 0,-71.52 1.371,-69.45 -51.411,-69.45 -53.242,0 -54.179,0.821 -54.179,69.02 0,71.531 0,71.531 55.078,71.531 z m 583.481,0 c 36.25,0 40.86,-0.82 47.26,-9.109 5.98,-7.422 7.35,-21.051 7.35,-61.992 0,-66.95 -1.84,-69.45 -53.24,-69.45 -54.18,0 -52.35,-2.07 -52.35,69.45 0,42.152 1.84,62.812 5.51,66.14 3.67,3.321 20.66,4.961 45.47,4.961 z m -292.7,-0.16 c 19.46,0.039 39.07,-1.289 44.81,-3.98 7.81,-4.149 8.71,-9.5 8.71,-66.141 0,-72.731 1.84,-70.27 -52.77,-70.27 -54.648,0 -52.82,-2.461 -52.82,70.27 0,54.141 0.941,61.992 8.289,65.75 5.031,2.891 24.331,4.332 43.781,4.371 z"
             style="fill:#000000;fill-opacity:1;fill-rule:nonzero;stroke:none;stroke-width:1.40197"
             id="path3076" /><g
             id="g3078"
             style="stroke-width:1.40197"><g
               id="g3080"
               clip-path="url(#clipPath3084)"
               style="stroke-width:1.40197"><path
                 d="m 146.48,1199.61 36.84,-102.19 36.879,-95.43 36.871,-88.67 32.27,-72.031 32.219,-66.879 32.269,-61.711 32.262,-56.527 27.66,-44.332 27.621,-40.551 27.649,-36.719 27.66,-32.929 27.66,-29.141 23.039,-21.41 23.051,-18.711 23.011,-16.09 23.039,-13.48 23.051,-10.821 23.047,-8.156 23.043,-5.551 23.008,-2.929 23.051,-0.231 23.05,2.34 23.04,5.039 23.05,7.66 23.051,10.27 23.008,12.929 23.043,15.59 23.047,18.199 23.051,20.864 23.039,23.468 27.621,31.68 27.66,35.469 27.65,39.262 27.66,43.089 27.65,46.872 32.23,59.488 32.27,64.648 32.26,69.813 32.27,75.039 32.22,80.15 36.88,97.97 23.05,64.65"
                 style="fill:none;stroke:#000000;stroke-width:28.0391;stroke-linecap:square;stroke-linejoin:round;stroke-miterlimit:10;stroke-dasharray:none;stroke-opacity:1"
                 id="path3086" /><path
                 d="m 1095.55,800.23 c 10.62,0 20.78,4.219 28.28,11.719 7.5,7.5 11.72,17.66 11.72,28.281 0,10.629 -4.22,20.79 -11.72,28.29 -7.5,7.5 -17.66,11.71 -28.28,11.71 -10.59,0 -20.78,-4.21 -28.28,-11.71 -7.5,-7.5 -11.72,-17.661 -11.72,-28.29 0,-10.621 4.22,-20.781 11.72,-28.281 7.5,-7.5 17.69,-11.719 28.28,-11.719 z"
                 style="fill:#ff0000;fill-opacity:1;fill-rule:nonzero;stroke:none;stroke-width:1.40197"
                 id="path3088" /><path
                 d="m 1095.55,800.23 c 10.62,0 20.78,4.219 28.28,11.719 7.5,7.5 11.72,17.66 11.72,28.281 0,10.629 -4.22,20.79 -11.72,28.29 -7.5,7.5 -17.66,11.71 -28.28,11.71 -10.59,0 -20.78,-4.21 -28.28,-11.71 -7.5,-7.5 -11.72,-17.661 -11.72,-28.29 0,-10.621 4.22,-20.781 11.72,-28.281 7.5,-7.5 17.69,-11.719 28.28,-11.719 z"
                 style="fill:none;stroke:#000000;stroke-width:21.0293;stroke-linecap:butt;stroke-linejoin:round;stroke-miterlimit:10;stroke-dasharray:none;stroke-opacity:1"
                 id="path3090" /></g></g></g></g></g><g
       id="g3714"
       transform="matrix(0.71065812,0,0,0.71592981,-39.057103,108.25959)"
       style="stroke-width:1.40197;filter:url(#filter4316)"><rect
         style="fill:#ffffff;stroke:#ffffff;stroke-width:1.36691;stroke-linejoin:round;stop-color:#000000"
         id="rect3625"
         width="139.36378"
         height="101.52731"
         x="-110.85491"
         y="140.88756"
         transform="scale(1,-1)" /><g
         id="g3145"
         transform="matrix(0.1,0,0,0.1,-112.37834,-269.69632)"
         style="stroke-width:1.40197"><g
           id="g3147"
           clip-path="url(#clipPath3151)"
           style="stroke-width:1.40197"><path
             d="m 146.48,1213.83 36.84,-102.19 36.879,-95.43 36.871,-88.671 32.27,-72.07 32.219,-66.879 32.269,-61.68 32.262,-56.558 27.66,-44.332 27.621,-40.508 27.649,-36.762 27.66,-32.93 27.66,-29.14 23.039,-21.371 23.051,-18.75 23.011,-16.09 23.039,-13.481 23.051,-10.816 23.047,-8.16 23.043,-5.551 23.008,-2.891 23.051,-0.269 23.05,2.379 23.04,5 23.05,7.66 23.051,10.308 23.008,12.934 23.043,15.539 23.047,18.25 23.051,20.82 23.039,23.508 27.621,31.641 27.66,35.469 27.65,39.3 27.66,43.051 27.65,46.871 32.23,59.489 32.27,64.652 32.26,69.848 32.27,75 32.22,80.19 36.88,97.93 23.05,64.69"
             style="fill:none;stroke:#000000;stroke-width:28.0391;stroke-linecap:square;stroke-linejoin:round;stroke-miterlimit:10;stroke-dasharray:none;stroke-opacity:1"
             id="path3153" /><path
             d="m 1197.62,1080.16 c 10.62,0 20.78,4.22 28.32,11.72 7.5,7.5 11.68,17.65 11.68,28.28 0,10.58 -4.18,20.78 -11.68,28.28 -7.54,7.5 -17.7,11.72 -28.32,11.72 -10.59,0 -20.78,-4.22 -28.28,-11.72 -7.5,-7.5 -11.72,-17.7 -11.72,-28.28 0,-10.63 4.22,-20.78 11.72,-28.28 7.5,-7.5 17.69,-11.72 28.28,-11.72 z"
             style="fill:#ff0000;fill-opacity:1;fill-rule:nonzero;stroke:none;stroke-width:1.40197"
             id="path3155" /><path
             d="m 1197.62,1080.16 c 10.62,0 20.78,4.22 28.32,11.72 7.5,7.5 11.68,17.65 11.68,28.28 0,10.58 -4.18,20.78 -11.68,28.28 -7.54,7.5 -17.7,11.72 -28.32,11.72 -10.59,0 -20.78,-4.22 -28.28,-11.72 -7.5,-7.5 -11.72,-17.7 -11.72,-28.28 0,-10.63 4.22,-20.78 11.72,-28.28 7.5,-7.5 17.69,-11.72 28.28,-11.72 z"
             style="fill:none;stroke:#000000;stroke-width:21.0293;stroke-linecap:butt;stroke-linejoin:round;stroke-miterlimit:10;stroke-dasharray:none;stroke-opacity:1"
             id="path3157" /></g></g><path
         d="m 32.11366,-112.69632 h -144.492 v -156.246 h 144.492 z m -100.726,-11.141 c 2.1871,0.02 4.3899,-0.144 4.8,-0.515 0.8289,-0.746 0.782,-12.071 -0.089,-12.692 -0.4149,-0.328 -2.204,-0.453 -5.1411,-0.371 l -4.5468,0.125 -0.1371,6.16 c -0.0899,4.172 0.0468,6.321 0.414,6.696 0.3442,0.371 2.5121,0.578 4.7,0.597 z m -29.3519,-0.019 c 3.1211,0 4.4531,-0.164 4.8199,-0.578 0.368,-0.375 0.5039,-2.524 0.414,-6.7 l -0.1359,-6.156 -4.5473,-0.125 c -2.9378,-0.082 -4.7269,0.043 -5.14097,0.371 -0.78086,0.578 -0.91797,11.121 -0.18281,12.403 0.41408,0.703 1.00698,0.785 4.77308,0.785 z m 58.4839,0 c 2.204,0 4.27,-0.168 4.5899,-0.332 0.4141,-0.289 0.5512,-1.903 0.457,-6.738 l -0.1359,-6.364 -4.5899,-0.125 c -3.9031,-0.082 -4.6839,0 -5.141,0.621 -0.414,0.453 -0.598,2.395 -0.598,6.157 0,6.863 -0.0461,6.781 5.4179,6.781 z m 29.243,0 c 2.179,0 4.359,-0.168 4.726,-0.496 0.781,-0.703 0.781,-11.946 0,-12.649 -0.367,-0.332 -2.109,-0.496 -4.726,-0.496 -2.618,0 -4.364,0.164 -4.7308,0.496 -0.3672,0.328 -0.5512,2.356 -0.5512,6.325 0,3.968 0.184,5.992 0.5512,6.324 0.3668,0.328 2.5507,0.496 4.7308,0.496 z m 29.238,0 c 3.031,0 4.133,-0.168 4.683,-0.664 0.965,-0.824 1.055,-11.16 0.137,-12.274 -0.457,-0.621 -1.238,-0.703 -5.14,-0.621 l -4.59,0.125 -0.137,6.364 c -0.094,4.835 0.047,6.449 0.457,6.738 0.324,0.164 2.387,0.332 4.59,0.332 z m -108.145,-20.129 c 12.4808,0.008 29.6719,-0.004 48.5629,-0.043 l 68.6721,-0.082 v -93.004 h -137.71509 v 46.418 c 0,25.547 0.0941,46.543 0.18398,46.625 0.0461,0.043 7.81601,0.074 20.29611,0.086 z m 20.5121,-100.5469 c 2.1019,-0.0352 4.2027,-0.2692 4.6367,-0.684 0.5973,-0.4961 0.7344,-1.6949 0.7344,-6.3672 0,-7.066 0.0469,-7.027 -5.0942,-7.027 -5.648,0 -5.464,-0.2461 -5.464,6.945 0,4.2152 0.1832,6.2812 0.55,6.614 0.4379,0.3942 2.539,0.5582 4.6371,0.5192 z m -29.1012,-0.0231 c 2.4762,0 4.175,-0.164 4.543,-0.4961 0.3672,-0.3328 0.55,-2.3988 0.55,-6.614 0,-7.1911 0.184,-6.945 -5.3238,-6.945 -5.18715,0 -5.23402,0.043 -5.23402,7.07 0,7.0671 -0.0902,6.9851 5.46482,6.9851 z m 58.343,0 c 2.434,0 4.1801,-0.207 4.5,-0.4961 0.3672,-0.3328 0.5512,-2.3988 0.5512,-6.614 0,-7.152 0.1371,-6.945 -5.1411,-6.945 -5.3242,0 -5.4179,0.0821 -5.4179,6.902 0,7.1531 0,7.1531 5.5078,7.1531 z m 58.3481,0 c 3.625,0 4.086,-0.082 4.726,-0.9109 0.598,-0.7422 0.735,-2.109 0.735,-6.1992 0,-6.695 -0.184,-6.945 -5.324,-6.945 -5.418,0 -5.235,-0.207 -5.235,6.945 0,4.2152 0.184,6.2812 0.551,6.614 0.367,0.3321 2.066,0.4961 4.547,0.4961 z m -29.27,-0.016 c 1.946,0.004 3.907,-0.1289 4.481,-0.398 0.781,-0.4149 0.871,-0.95 0.871,-6.6141 0,-7.2731 0.184,-7.027 -5.277,-7.027 -5.4648,0 -5.282,-0.2461 -5.282,7.027 0,5.4141 0.0941,6.1992 0.8289,6.575 0.5031,0.2891 2.4331,0.4332 4.3781,0.4371 z"
         style="fill:#000000;fill-opacity:1;fill-rule:nonzero;stroke:none;stroke-width:0.140197"
         id="path3159" /></g><g
       inkscape:label=""
       transform="matrix(1.8049691,0,0,-1.8049691,-256.91607,40.200681)"
       id="g7664"
       style="stroke-width:0.415521"><g
   id="g1346"
   style="stroke-width:0.415521">
    <g
   style="fill:#000000;fill-opacity:1;stroke-width:0.415521"
   id="g9749">
      <use
   xlink:href="#symbol4488"
   x="91.925003"
   y="81.962997"
   id="use768"
   width="100%"
   height="100%"
   style="stroke-width:0.415521" />
    </g>
    <g
   style="fill:#000000;fill-opacity:1;stroke-width:0.415521"
   id="g7107">
      <use
   xlink:href="#symbol3500"
   x="97.934998"
   y="81.962997"
   id="use9583"
   width="100%"
   height="100%"
   style="stroke-width:0.415521" />
    </g>
    <g
   style="fill:#000000;fill-opacity:1;stroke-width:0.415521"
   id="g7394">
      <use
   xlink:href="#symbol7194"
   x="108.45351"
   y="81.962997"
   id="use4250"
   width="100%"
   height="100%"
   style="stroke-width:0.415521" />
    </g>
  </g>
</g><g
       inkscape:label=""
       transform="matrix(1.8049691,0,0,-1.8049691,-163.22683,22.572444)"
       id="g7979"
       style="stroke-width:0.415521"><g
   id="g5475"
   style="stroke-width:0.415521">
    <g
   style="fill:#000000;fill-opacity:1;stroke-width:0.415521"
   id="g6877">
      <use
   xlink:href="#symbol3342"
   x="91.925003"
   y="81.962997"
   id="use3778"
   width="100%"
   height="100%"
   style="stroke-width:0.415521" />
    </g>
    <g
   style="fill:#000000;fill-opacity:1;stroke-width:0.415521"
   id="g1528">
      <use
   xlink:href="#symbol3727"
   x="97.934998"
   y="81.962997"
   id="use5965"
   width="100%"
   height="100%"
   style="stroke-width:0.415521" />
    </g>
    <g
   style="fill:#000000;fill-opacity:1;stroke-width:0.415521"
   id="g8383">
      <use
   xlink:href="#symbol5742"
   x="108.45351"
   y="81.962997"
   id="use8508"
   width="100%"
   height="100%"
   style="stroke-width:0.415521" />
    </g>
  </g>
</g><g
       inkscape:label=""
       transform="matrix(1.8049691,0,0,-1.8049691,-13.687125,44.812589)"
       id="g8392"
       style="stroke-width:0.415521"><g
   id="g694"
   style="stroke-width:0.415521">
    <g
   style="fill:#000000;fill-opacity:1;stroke-width:0.415521"
   id="g1460">
      <use
   xlink:href="#symbol6799"
   x="91.925003"
   y="81.962997"
   id="use7460"
   width="100%"
   height="100%"
   style="stroke-width:0.415521" />
    </g>
    <g
   style="fill:#000000;fill-opacity:1;stroke-width:0.415521"
   id="g3545">
      <use
   xlink:href="#symbol2183"
   x="97.934998"
   y="81.962997"
   id="use8060"
   width="100%"
   height="100%"
   style="stroke-width:0.415521" />
    </g>
    <g
   style="fill:#000000;fill-opacity:1;stroke-width:0.415521"
   id="g8037">
      <use
   xlink:href="#symbol4293"
   x="108.451"
   y="81.962997"
   id="use2423"
   width="100%"
   height="100%"
   style="stroke-width:0.415521" />
    </g>
  </g>
</g><text
       xml:space="preserve"
       style="font-size:20.0001px;line-height:1.25;font-family:'CMU Sans Serif';-inkscape-font-specification:'CMU Sans Serif';stroke-width:0.750002"
       x="88.247826"
       y="38.268303"
       id="text11624"
       transform="scale(1,-1)"><tspan
         sodipodi:role="line"
         id="tspan11622"
         style="stroke-width:0.750002"
         x="88.247826"
         y="38.268303">...</tspan></text></g></svg>
